<svg id="Capa_1" enable-background="new 0 0 512 512" height="512" viewBox="0 0 512 512" width="512" xmlns="http://www.w3.org/2000/svg"><g><path d="m441.667 415.667v-363.334c0-28.857-23.477-52.333-52.333-52.333-28.857 0-52.334 23.476-52.334 52.333v363.333h104.667z" fill="#a51f53"/><path d="m175 415.667v-363.334c0-28.857-23.477-52.333-52.333-52.333s-52.333 23.476-52.333 52.333v363.333h104.666z" fill="#bf1c59"/><g><g><g><path d="m384.45 134.333h-120.629l-10 89.667 10 100.333h35.311l48.006-84.638z" fill="#e28d69"/></g><path d="m22.334 134.333v190h73.59l17.661-3 15.224 3h66.373l19.944-5 12.941 5h35.754v-190z" fill="#ebb16d"/><path d="m405.667 134.333-73.649 190h157.649v-190z" fill="#e28d69"/></g><g><path d="m384.45 134.333-85.318 190h32.886l85.317-190z" fill="#d86063"/><path d="m181.241 134.333-85.317 190h32.885l85.317-190z" fill="#e28d69"/><g><path d="m313.384 134.333h-32.885l-16.678 37.142-4.821 42.858 4.821 30.377z" fill="#d86063"/><path d="m228.067 324.333 35.754-79.623v-73.235l-68.639 152.858z" fill="#e28d69"/></g></g></g><path d="m0 473.385v38.615-38.628z" fill="#deedf5"/><path d="m0 139.917v35.083-35.096z" fill="#deedf5"/><g><path d="m512 512v-15c0-27.323-8.843-49.713-25.572-64.751-14.98-13.465-35.646-20.583-59.761-20.583-42.995 0-91.691-3.545-144.736-10.538-5.659-.746-11.741-1.621-18.11-2.566l-10 63.562 10 49.875h248.179z" fill="#bfe0f5"/><path d="m71.221 389.272c-42.595 10.493-71.214 44.289-71.221 84.1v38.628h263.82v-113.437c-4.865-.722-9.893-1.484-15.057-2.267-56.814-8.619-127.519-19.346-177.542-7.024z" fill="#deedf5"/></g><g><path d="m465 277c25.916 0 47-21.084 47-47v-90.084c0-38.368-31.215-69.583-69.583-69.583h-178.596l-10 52.333 10 52.333h154.179v55c0 25.918 21.084 47.001 47 47.001z" fill="#bfe0f5"/><path d="m69.583 70.333c-38.364 0-69.576 31.208-69.583 69.571v35.096h263.82v-104.667z" fill="#deedf5"/></g></g></svg>