<svg id="Capa_1" enable-background="new 0 0 512 512" height="512" viewBox="0 0 512 512" width="512" xmlns="http://www.w3.org/2000/svg"><g><g><path d="m313.666 57.667c0-31.376-25.192-56.961-56.409-57.635l-10 202.478 10 243.49h56.409z" fill="#e28d69"/><g fill="#ebb16d"><path d="m257.257 0h-1.257c.422 0 .838.023 1.257.032z"/><path d="m256 0c-31.797 0-57.667 25.869-57.667 57.667v388.333h58.924v-445.968c-.419-.009-.836-.032-1.257-.032z"/></g></g><g><path d="m456.666 129.089h-199.409l-10 124.441 10 65.137h199.409z" fill="#a51f53"/><path d="m55.333 129.089h201.924v189.578h-201.924z" fill="#bf1c59"/></g><g><path d="m410.785 496.992c-.025-49.758-40.525-90.239-90.283-90.239-20.278 0-44.407-5.456-63.244-12.962l-10 59.104 10 59.104h153.535z" fill="#bfe0f5"/><path d="m101.215 472.284v39.716h156.043v-118.209c-21.099-7.826-43.197-11.791-65.759-11.791-49.783 0-90.284 40.501-90.284 90.284z" fill="#deedf5"/></g><g><path d="m478.956 152.775c-.002-26.704-8.624-46.829-25.628-59.816-15.02-11.472-36.155-17.048-64.612-17.048-1.001 0-107.822.593-131.458.107l-10 53.071 10 39.717h126.624v58.636c0 26.224 21.335 47.559 47.56 47.559 26.223-.001 47.558-21.336 47.558-47.569z" fill="#bfe0f5"/><path d="m235.94 75.062c-13.083-1.527-24.584-3.237-43.37-10.054-21.624-7.847-40.456-13.85-69.286-13.85-49.783 0-90.284 40.501-90.284 90.284v27.363h224.257v-92.787c-10.605-.218-17.73-.537-21.317-.956z" fill="#deedf5"/></g><g><path d="m336 244h-78.743l-10-16.141 10-13.859h78.743z" fill="#deedf5"/><path d="m176 214h81.257v30h-81.257z" fill="#fffbf5"/></g></g></svg>