<svg id="Capa_1" enable-background="new 0 0 512 512" height="512" viewBox="0 0 512 512" width="512" xmlns="http://www.w3.org/2000/svg"><g><path d="m192.372 0c-.799 0-1.6.011-2.402.032h5.126c-.907-.013-1.814-.032-2.724-.032z" fill="#deedf5"/><g><g><path d="m427.166 374.333v-151.317h-171.166l-9.413 105.992 6.247 45.325z" fill="#f7f0eb"/><path d="m84.834 223.016h171.166v151.317h-171.166z" fill="#fffbf5"/></g><g><path d="m104.167 366.249-30-7.916v-105.914h30z" fill="#ebb16d"/><path d="m407.833 366.249 30-7.916v-105.914h-30z" fill="#e28d69"/></g><g><path d="m256 358.333-10 76.834 10 76.833h181.832v-153.667z" fill="#304b5e"/><path d="m74.167 358.333h181.833v153.667h-181.833z" fill="#3f6279"/></g><g><path d="m325.333 420.167h-69.333l-10 15 10 15h69.333z" fill="#deedf5"/><path d="m186.666 420.167h69.334v30h-69.334z" fill="#fffbf5"/></g><path d="m256 209.559v.192" fill="#bf1c59"/><path d="m74.167 209.559h181.833v.191h-181.833z" fill="#5c9296"/><g><g><path d="m385.356 79.503h-129.356l-10 81.821 10 68.237 214.498-19.81z" fill="#a51f53"/><path d="m41.5 209.751 214.5 19.81v-150.058h-129.357z" fill="#bf1c59"/></g><g><path d="m256 209.559-10 15.234 10 13.405c0 30.253 24.525 54.778 54.778 54.778 33.48 0 60.848-26.113 62.881-59.081l.134.184c0 32.528 26.369 58.897 58.897 58.897 14.395 0 27.578-5.171 37.81-13.749v-69.668z" fill="#8a1a45"/><path d="m41.5 209.559v69.668c10.231 8.577 23.414 13.749 37.81 13.749 31.216 0 56.745-24.29 58.754-54.999l.143.221c0 30.253 24.525 54.778 54.778 54.778 34.802 0 63.015-28.213 63.015-63.015v-20.401z" fill="#a51f53"/></g></g><g><path d="m411.616 106.635-.004-.307c-1.186-52.604-33.233-81.575-90.237-81.575-20.278 0-46.537-6.22-65.375-13.726l-10 60.525 10 58.448h60.608c1.334 25.04 22.125 45 47.491 45 26.225 0 47.56-21.335 47.56-47.59z" fill="#bfe0f5"/><path d="m195.096.032c-49.113 1.272-101.758 41.269-101.758 90.252v39.716h162.662v-118.972c-19.601-7.007-40.044-10.7-60.904-10.996z" fill="#deedf5"/></g></g></g></svg>