<svg id="Capa_1" enable-background="new 0 0 512 512" height="512" viewBox="0 0 512 512" width="512" xmlns="http://www.w3.org/2000/svg"><g><path d="m191.499 0c-.423 0-.843.01-1.264.016h2.632c-.457-.003-.912-.016-1.368-.016z" fill="#deedf5"/><path d="m191.499 0c-.423 0-.843.01-1.264.016h2.632c-.457-.003-.912-.016-1.368-.016z" fill="#deedf5"/><g><path d="m380.785 440.333v71.667h30v-51.167z" fill="#7e9ff0"/><path d="m271 314.334v146.499h139.785v-146.499h-.034z" fill="#7bc5b0"/><g><path d="m271 460.833h139.785v-146.499l-139.785-10-10 83.999z" fill="#e28d69"/><path d="m101.215 314.334v121.284c0 13.904 11.312 25.215 25.216 25.215h144.569v-156.5z" fill="#ebb16d"/></g><g transform="matrix(.987 -.16 .16 .987 -68.991 32.792)"><ellipse cx="168.898" cy="444.317" fill="#dcdcdc" rx="67.683" ry="67.683"/><ellipse cx="168.898" cy="444.317" fill="#aba4ab" rx="29.045" ry="29.044"/></g><g><path d="m315.666 137h-44.666l-10 82.833 10 94.501h139.751v-120.997z" fill="#deedf5"/><path d="m271 137-169.785.941v108.392l169.785 68.001z" fill="#f2f8fb"/></g><path d="m101.215 246.333h169.786v68.001h-169.786z" fill="#d86063"/><path d="m410.751 130v.901z" fill="#f9f9f9"/><path d="m410.785 191.992-.034-61.091v62.436c.013-.449.034-.894.034-1.345z" fill="#deedf5"/><g><path d="m271 117.268-10 43.065 10 35.112c32.322 0 58.525-26.202 58.525-58.525v-24.365z" fill="#6c7bf0"/><path d="m101.215 130v6.92c0 32.322 26.203 58.525 58.525 58.525 25.973 0 47.981-16.925 55.63-40.343 7.65 23.418 29.658 40.343 55.63 40.343v-78.177z" fill="#7e9ff0"/></g><g><path d="m410.741 113.306-.004-.33c-.533-23.683-10.154-45.861-27.089-62.45-16.967-16.62-39.392-25.772-63.147-25.772-16.917 0-33.523-2.659-49.501-7.895l-10 59.777 10 53.364h44.666v62c0 26.225 21.335 47.56 47.56 47.56 25.774 0 46.809-20.611 47.525-46.223z" fill="#bfe0f5"/><path d="m261.552 13.442c-21.962-8.75-43.219-13.426-71.318-13.426-49.201.68-89.02 40.908-89.02 90.268v39.716h169.786v-113.141c-3.174-1.04-6.326-2.173-9.448-3.417z" fill="#deedf5"/></g></g></g></svg>