<svg id="Capa_1" enable-background="new 0 0 512.263 512.263" height="512" viewBox="0 0 512.263 512.263" width="512" xmlns="http://www.w3.org/2000/svg"><g><g><path d="m174.749 490.134 48.877-134.689h-77.553l-48.878 134.689z" fill="#e28d69"/><path d="m337.514 490.134-48.878-134.689h77.554l48.878 134.689z" fill="#d86063"/></g><g><path d="m445.965 204.833c0-104.841-84.991-189.833-189.833-189.833l-10.001 189.833 10.001 189.833c104.842 0 189.833-84.991 189.833-189.833z" fill="#bfe0f5"/><path d="m256.131 15c-104.842 0-189.833 84.991-189.833 189.833s84.991 189.833 189.833 189.833z" fill="#deedf5"/></g><g><path d="m368.632 204.833c0-62.132-50.368-112.5-112.5-112.501l-5.927 112.501 5.927 112.501c62.132 0 112.5-50.368 112.5-112.501z" fill="#f7f0eb"/><path d="m256.131 92.333c-62.132 0-112.501 50.368-112.501 112.501 0 62.132 50.368 112.501 112.501 112.501z" fill="#fffbf5"/></g><path d="m42.798 497.262h426.667" fill="#f9f9f9"/><g><path d="m273.524 204.833c0 9.59-7.803 17.392-17.393 17.392v30c26.133 0 47.393-21.26 47.393-47.392s-21.26-47.392-47.393-47.392v30c9.59 0 17.393 7.802 17.393 17.392z" fill="#e28d69"/><path d="m208.74 204.833c0 26.132 21.26 47.392 47.392 47.392v-30c-9.59 0-17.392-7.802-17.392-17.392s7.802-17.392 17.392-17.392v-30c-26.133 0-47.392 21.26-47.392 47.392z" fill="#ebb16d"/></g><g><path d="m358.464 204.833c0 56.427-45.906 102.334-102.333 102.334v102.5c112.945 0 204.833-91.888 204.833-204.834 0-112.945-91.887-204.833-204.833-204.833v102.5c56.427 0 102.333 45.906 102.333 102.333zm-87.333 174.183v-42.705c25.267-2.864 48.397-12.868 67.32-27.945l30.181 30.181c-26.836 22.615-60.544 37.314-97.501 40.469zm118.714-61.682-30.181-30.181c15.077-18.923 25.081-42.054 27.945-67.32h42.705c-3.156 36.957-17.854 70.665-40.469 97.501zm40.469-127.501h-42.705c-2.864-25.267-12.867-48.397-27.945-67.32l30.181-30.181c22.615 26.837 37.313 60.545 40.469 97.501zm-159.183-159.183c36.956 3.156 70.664 17.854 97.501 40.469l-30.181 30.18c-18.923-15.077-42.054-25.081-67.32-27.945z" fill="#6c7bf0"/><path d="m51.298 204.833c0 112.946 91.888 204.834 204.833 204.834v-102.5c-56.427 0-102.333-45.907-102.333-102.334s45.906-102.333 102.333-102.333v-102.5c-112.945 0-204.833 91.888-204.833 204.833zm30.651 15h42.705c2.864 25.267 12.867 48.397 27.945 67.321l-30.181 30.18c-22.616-26.836-37.314-60.544-40.469-97.501zm91.862 88.534c18.923 15.077 42.054 25.081 67.32 27.945v42.705c-36.956-3.156-70.665-17.854-97.501-40.469zm67.32-277.717v42.705c-25.267 2.864-48.397 12.868-67.32 27.945l-30.18-30.18c26.836-22.616 60.544-37.314 97.5-40.47zm-88.533 91.863c-15.077 18.923-25.081 42.054-27.945 67.32h-42.704c3.156-36.956 17.854-70.665 40.469-97.501z" fill="#7e9ff0"/></g><g><path d="m256.131 482.263h213.333v30h-213.333z" fill="#bfe0f5"/><path d="m42.798 482.263h213.333v30h-213.333z" fill="#deedf5"/></g></g></svg>