<svg id="Capa_1" enable-background="new 0 0 511.996 511.996" height="512" viewBox="0 0 511.996 511.996" width="512" xmlns="http://www.w3.org/2000/svg"><g><g><g><path d="m279.5 216.331v-34.667l-8.999-16.179 8.999-13.821v-6.603c0-47.34-38.514-85.854-85.854-85.854h-22.146l-4 81.873 4 75.251z" fill="#bfe0f5"/><path d="m171.501 216.331v-157.123h-104.334v62.793l14.831 94.33z" fill="#deedf5"/></g><path d="m67.167 122.001h60.833v94.33h-60.833z" fill="#bfe0f5"/><path d="m207.667 151.664h71.833v30h-71.833z" fill="#f2f8fb"/></g><g><path d="m273 272.541v132.811h144.12v-132.811z" fill="#304b5e"/><path d="m498.556 342.098c-2.706-3.609-5.758-6.921-9.124-9.906.212-12.991-3.872-25.656-11.744-36.152-11.035-14.714-28.603-23.498-46.996-23.498h-30.443v161.716l60.751 18.53h31.414l16.226-49.37c6.849-20.844 3.08-43.768-10.084-61.32z" fill="#bfe0f5"/><path d="m461 452.788h-73.88v-211.914h30v181.914h43.88z" fill="#7bc5b0"/></g><g><path d="m336 208.541h-164.499l-10 64 10 100.812h164.499z" fill="#7bc5b0"/><path d="m0 208.541h171.501v164.811h-171.501z" fill="#9edba7"/></g><g><g><path d="m265 304.541h-93.499l-10 12.791v118.781l10 16.675h93.499z" fill="#304b5e"/><path d="m72.978 304.541h98.523v148.247h-98.523z" fill="#3f6279"/></g><ellipse cx="265.877" cy="378.665" fill="#cfcacc" rx="74.123" ry="74.123" transform="matrix(.23 -.973 .973 .23 -163.744 550.43)"/><ellipse cx="265.877" cy="378.665" fill="#999399" rx="36.522" ry="36.522" transform="matrix(.707 -.707 .707 .707 -189.883 298.912)"/><ellipse cx="74.47" cy="378.665" fill="#e1dedf" rx="74.123" ry="74.123" transform="matrix(.993 -.122 .122 .993 -45.709 11.936)"/><ellipse cx="74.47" cy="378.665" fill="#aba4ab" rx="36.522" ry="36.522" transform="matrix(.973 -.23 .23 .973 -85.007 27.239)"/></g></g></svg>