<svg id="Capa_1" enable-background="new 0 0 512 512" height="512" viewBox="0 0 512 512" width="512" xmlns="http://www.w3.org/2000/svg"><g><g><path d="m256 512h68.333v-104h-68.333l-5.932 50.331z" fill="#bf1c59"/><path d="m187.667 408h68.334v104h-68.334z" fill="#d86063"/></g><g><path d="m347.371 253h-91.371l-8.743 93.333 8.743 84.667h180.371z" fill="#60b09e"/><path d="m164.629 253-89 178h180.371v-178z" fill="#7bc5b0"/></g><g><path d="m387.696 283.121-102.894-205.787h-28.802l-8.743 125.333 8.743 80.454z" fill="#7bc5b0"/><path d="m124.304 283.121h131.696v-205.787h-28.802z" fill="#9edba7"/></g><g><path d="m276.167 337.667h30v30h-30z" fill="#bfe0f5"/><path d="m205.833 316.333h30v30h-30z" fill="#deedf5"/><path d="m276.167 208h30v30h-30z" fill="#bfe0f5"/></g><g><path d="m288.244 41.768-32.244-41.768-5 77.922 5 63.083 50.637 14.839 1.535-52.744 29.76-43.573z" fill="#e28d69"/><path d="m223.756 41.768-49.688 17.759 29.76 43.573 1.535 52.744 50.637-14.839v-141.005z" fill="#ebb16d"/></g></g></svg>