<svg id="Capa_1" enable-background="new 0 0 512 512" height="512" viewBox="0 0 512 512" width="512" xmlns="http://www.w3.org/2000/svg"><g><g><g><path d="m460.667 332.938v-135.948l-204.667-161.143-.078.062-10 202.244 10 104.786z" fill="#304b5e"/><path d="m51.333 332.938 204.589 10.001v-307.03l-204.589 161.081z" fill="#3f6279"/></g><g><path d="m460.667 332.938h-204.667l-10 60 10 60h204.667z" fill="#deedf5"/><path d="m51.333 332.938h204.667v120h-204.667z" fill="#f6fafc"/></g></g><path d="m358.333 18.605v108.774l102.334 54.453v-163.227z" fill="#ebb16d"/><g><path d="m256 105.762 204.667 160.085 50.443-64.523-255.11-199.747-.078.061-9.001 56.967 9.001 47.218z" fill="#d86063"/><path d="m255.922 1.638-255.189 199.505 50.538 64.644 204.651-159.964z" fill="#e28d69"/></g><g><g><path d="m340.333 453.113v-158.175c0-46.501-37.832-84.333-84.333-84.333-.026 0-.052.002-.078.002l-10 122.331 10 120.174h84.411z" fill="#e28d69"/><path d="m171.667 294.938v158.175h84.255v-242.506c-46.466.042-84.255 37.856-84.255 84.331z" fill="#ebb16d"/></g><g><path d="m271 317.271h-15l-2 16.334 2 13.666h15z" fill="#d86063"/><path d="m241 317.271h15v30h-15z" fill="#e28d69"/></g></g><g><path d="m512 495.423c0-27.323-8.843-49.713-25.573-64.751-14.98-13.465-35.645-20.582-59.761-20.582-42.996 0-91.692-3.545-144.735-10.538-7.959-1.049-16.738-2.349-26.009-3.749l-10 66.163 10 48.457h256.078z" fill="#bfe0f5"/><path d="m248.765 394.719c-56.815-8.619-127.523-19.346-177.544-7.023-42.6 10.493-71.221 44.295-71.221 84.112v38.615h255.922v-114.62c-2.358-.357-4.74-.718-7.157-1.084z" fill="#deedf5"/></g></g></svg>