<svg id="Capa_1" enable-background="new 0 0 511.967 511.967" height="512" viewBox="0 0 511.967 511.967" width="512" xmlns="http://www.w3.org/2000/svg"><g><path d="m12.849 219.764 24.811 22.379-14.883 7.441 13.416 26.833 25.392-12.696 64.121 57.833 14.531-29.41-106.709-95.643z" fill="#e28d69"/><path d="m479.186 199.523-26.414 23.868-9.31-25.813-28.22 10.177 13.477 37.371-60.207 54.404 19.782 22.024 110.824-99.61z" fill="#d86063"/><g><path d="m408.704 432.491c3.531-13.262 5.317-26.941 5.317-40.802 0-52.965-26.13-99.938-66.172-128.718l4.523-5.696c17.496-22.033 26.744-48.575 26.744-76.755-.001-68.109-55.412-123.52-123.521-123.52l-15 237.883 15 217.084h181.428v-23.718c-.001-22.449-10.609-42.91-28.319-55.758z" fill="#bfe0f5"/><path d="m132.073 180.521c0 28.179 9.247 54.72 26.743 76.754l4.524 5.697c-40.042 28.78-66.172 75.752-66.172 128.717 0 13.86 1.786 27.54 5.318 40.802-17.711 12.847-28.32 33.309-28.32 55.758v23.718h181.428v-454.967c-68.109 0-123.521 55.411-123.521 123.521z" fill="#deedf5"/></g><path d="m255.594 161.245h73.558v30h-73.558z" fill="#e28d69"/><g><path d="m270.273 383.67v-30h-14.679l-10 15 10 15z" fill="#304b5e"/><path d="m270.595 324.883v-30h-15.001l-10 15.399 10 14.601z" fill="#304b5e"/><g fill="#3f6279"><path d="m240.273 353.67h15.322v30h-15.322z"/><path d="m240.594 294.883h15v30h-15z"/></g></g><g><g><path d="m255.594 101.127h94.406l-19.08-101.127h-152.869l-.007.033h77.55l-10 45.521z" fill="#3f6279"/><path d="m255.594 101.127v-101.094h-77.55l-19.074 101.094z" fill="#5c9296"/></g><g><path d="m393.544 90.724h-137.95l-10 15 10 15h137.95z" fill="#7bc5b0"/><path d="m115.426 90.724h140.168v30h-140.168z" fill="#9edba7"/></g></g></g></svg>