<svg id="Capa_1" enable-background="new 0 0 511.967 511.967" height="512" viewBox="0 0 511.967 511.967" width="512" xmlns="http://www.w3.org/2000/svg"><g><path d="m219.869 511.967 3.149-3.149h-6.298z" fill="#deedf5"/><path d="m375.316 283.667h30v30h-30z" fill="#bfe0f5"/><path d="m405.316 358.333h30v30h-30z" fill="#bfe0f5"/><g><path d="m455.702 151.794c-1.775-57.669-49.241-104.042-107.333-104.042-15.42 0-30.531 3.287-44.405 9.593-11.395-15.445-25.884-28.499-42.506-38.204-1.801-1.052-3.632-2.046-5.475-3.014l-21.333 122.54 21.333 112.881h242.527v-26.496c.001-30.753-16.5-58.495-42.808-73.258z" fill="#bfe0f5"/><path d="m190.526 0c-77.682 0-140.88 63.198-140.88 140.879 0 4.843.252 9.707.753 14.547-23.03 15.521-36.943 41.318-36.943 69.626v26.496h242.527v-235.421c-20.101-10.558-42.594-16.127-65.457-16.127z" fill="#deedf5"/></g><g><path d="m292.098 511.967 21.212-21.213-42.327-42.328v-30.392h30.394l42.327 42.327 21.213-21.213-36.114-36.114 36.114-36.115-21.213-21.212-42.327 42.327h-30.394v-30.393l42.327-42.327-21.212-21.213-36.115 36.113-10.666 75.119 10.666 70.52z" fill="#9ccefd"/><path d="m198.656 315.314 42.327 42.327v30.393h-30.393l-42.327-42.327-21.213 21.212 36.114 36.115-36.114 36.114 21.213 21.213 42.327-42.327h30.393v30.392l-42.327 42.328 18.064 18.064h6.298l32.965-32.965v-145.639l-36.114-36.113z" fill="#bedffe"/></g><g fill="#deedf5"><path d="m106.65 283.667h30v30h-30z"/><path d="m76.65 358.333h30v30h-30z"/></g></g></svg>