<svg id="Capa_1" enable-background="new 0 0 512 512" height="512" viewBox="0 0 512 512" width="512" xmlns="http://www.w3.org/2000/svg"><g><g><path d="m68.334 70.333h30v30h-30z" fill="#bfe0f5"/></g><g><path d="m59.667 379.667h30v30h-30z" fill="#bfe0f5"/></g><g><path d="m23.334 145h30v30h-30z" fill="#bfe0f5"/></g><g fill="#9ccefd"><path d="m422.333 155.885h30v30h-30z"/><path d="m373.333 433h30v30h-30z"/><path d="m458.667 230.551h30v30h-30z"/></g><g><g><path d="m256 423.426-10.001 58.555 10.001 30.019h57.667v-88.574z" fill="#d86063"/><path d="m198.333 423.426h57.667v88.574h-57.667z" fill="#e28d69"/></g><g><path d="m99.368 287.306c1.237 85.325 71.018 154.36 156.632 154.36l10-55.932-10-118.081z" fill="#9edba7"/><path d="m412.632 287.306-153.87-20-2.762.347v174.014c85.614 0 155.396-69.035 156.632-154.361z" fill="#7bc5b0"/></g><g><path d="m168.908 116.081c-8.627 22.484-17.126 43.919-24.887 59.376-28.532 29.175-44.683 68.468-44.683 109.548 0 .803.018 1.601.03 2.401h130.965v5.933c0 18.237 10.448 34.07 25.667 41.858l20-94.645-20-113.808z" fill="#f9f9f9"/><path d="m324.333 293.338v-5.933h88.298c.012-.8.03-1.598.03-2.401 0-41.079-16.151-80.372-44.683-109.548 4.972-10.705 8.368-22.085 10.11-33.768l-122.088-14.945v208.453c6.408 3.279 13.655 5.142 21.333 5.142 25.917 0 47-21.084 47-47z" fill="#deedf5"/></g><g><path d="m132.552 123.133.27.178h-.314v29.271c0 25.916 21.084 47 47 47s47-21.084 47-47v-10.772l29.492.062 20-71.539-20-70.333c-67.965 0-123.274 55.208-123.448 123.133z" fill="#deedf5"/><path d="m379.452 123.452c0-68.072-55.381-123.452-123.452-123.452v141.872l122.022.257c.941-6.158 1.43-12.4 1.43-18.677z" fill="#bfe0f5"/></g></g></g></svg>