<svg id="Capa_1" enable-background="new 0 0 512 512" height="512" viewBox="0 0 512 512" width="512" xmlns="http://www.w3.org/2000/svg"><g><g><path d="m271 40.976v-40.976h-15l-10 18.223 10 22.753z" fill="#cfcacc"/><path d="m241 0h15v40.976h-15z" fill="#dcdcdc"/></g><g><path d="m228.602 166.912h-72.523c-25.538 0-49.456-10.035-67.349-28.257s-27.49-42.32-27.023-67.854l1.268-69.517 69.517-1.268c25.511-.466 49.631 9.131 67.853 27.023 18.223 17.893 28.258 41.811 28.258 67.349v72.524z" fill="#7bc5b0"/><path d="m159.645 57.863h30v110.185h-30z" fill="#5c9296" transform="matrix(.707 -.707 .707 .707 -28.719 156.577)"/><g><path d="m313.4 94.042c0-31.65-25.749-57.399-57.399-57.399l-10 59.995 9.999 31.362h57.4z" fill="#e28d69"/><path d="m198.602 94.042v33.958h57.398v-91.358c-31.649 0-57.398 25.749-57.398 57.4z" fill="#ebb16d"/></g><g><path d="m255.986 110.774-20 198.559 20 202.667c101.036 0 184.867-75.078 198.632-172.375l-12.574-103.269s-47.265-128.938-186.058-125.582z" fill="#a51f53"/><path d="m56.892 336.025c12.182 99.039 96.83 175.975 199.108 175.975v-202.666-198.56c-140.367 0-186.058 125.582-186.058 125.582z" fill="#bf1c59"/></g><g><path d="m442.046 236.361-45.03 24.461c-16.036 9.251-34.021 13.877-52.001 13.878-17.984.001-35.963-4.625-52.003-13.879l-.129-.074c-11.381-6.537-24.132-9.805-36.883-9.805l-10 72.058 10 42.94c17.992-.005 35.985 4.621 52.032 13.879l.144.083c22.807 13.091 51.099 13.064 73.88-.08l72.561-40.199c1.306-9.229 1.997-18.653 1.997-28.236 0-26.514-5.183-51.837-14.568-75.026z" fill="#deedf5"/><path d="m218.986 260.819c-32.077 18.507-71.931 18.507-104.008 0l-45.023-24.458c-9.385 23.189-14.568 48.512-14.568 75.026 0 8.34.521 16.561 1.514 24.637l73.101 43.796c22.829 13.171 51.194 13.172 74.023-.001 16.03-9.248 34.003-13.874 51.975-13.879v-114.999c-12.799 0-25.599 3.291-37.014 9.878z" fill="#f9f9f9"/></g><g><path d="m123.334 307h30v30h-30z" fill="#d86063"/><path d="m358.667 307h30v30h-30z" fill="#a51f53"/><g><path d="m271 324.334h-14.999l-10-15 10-15h14.999z" fill="#bf1c59"/><path d="m241 294.334h15v30h-15z" fill="#d86063"/></g></g></g></g></svg>