<svg id="Capa_1" enable-background="new 0 0 512 512" height="512" viewBox="0 0 512 512" width="512" xmlns="http://www.w3.org/2000/svg"><g><g><path d="m270.149 85.333v-55.333h181v-30h-196l-10 47.288 10 38.045z" fill="#cfcacc"/><path d="m240.149 30v55.333h15v-85.333h-196.001v30z" fill="#dcdcdc"/></g><g><g><path d="m170.816 258.333-112.001 9.269v73.953l112.001 17.114z" fill="#f6fafc"/><path d="m338.816 250.386v108.385l112.666-17.216v-73.953z" fill="#deedf5"/></g><g><path d="m251.644 164.333-6.495 50.698 10 52.571h196.333v-52.165c0-18.295-5.424-36.045-15.173-51.104z" fill="#e28d69"/><path d="m73.988 164.333c-9.749 15.058-15.173 32.808-15.173 51.104v52.165h196.333v-103.269z" fill="#ebb16d"/></g><g><path d="m338.149 341.555 10.32 170.445h62.518l15.128-16.157c16.358-17.47 25.368-40.272 25.368-64.207v-90.081z" fill="#d86063"/><path d="m170.149 341.555h-111.334v90.081c0 23.934 9.009 46.736 25.368 64.207h-.001l15.13 16.157h62.517z" fill="#e28d69"/></g></g><g><path d="m255.149 237.602-10 133.953 10 140.445h93.32v-274.398z" fill="#bfe0f5"/><path d="m161.829 237.602h93.32v274.398h-93.32z" fill="#deedf5"/></g><g><path d="m453.159 155.619c-.013-40.193-32.721-72.899-72.911-72.905-.001 0-.002 0-.003 0-.83 0-90.267.486-101.753-.855-6.619-.772-14.621-1.593-23.342-3.091l-10 49.232 10 48.059h102.454v18.919c0 26.352 21.439 47.791 47.791 47.791s47.791-21.439 47.791-47.795z" fill="#bfe0f5"/><path d="m227.876 71.756c-21.626-7.849-40.453-13.857-69.184-13.917-.067 0-.13 0-.197 0-24.223 0-47.035 9.454-64.25 26.632-17.228 17.192-26.716 40.002-26.716 64.23v27.358h187.62v-97.29c-8.6-1.478-17.9-3.612-27.273-7.013z" fill="#deedf5"/></g></g></svg>