<svg id="Capa_1" enable-background="new 0 0 512 512" height="512" viewBox="0 0 512 512" width="512" xmlns="http://www.w3.org/2000/svg"><g><path d="m0 212.182h.733v87.636h-.733z" fill="#bfe0f5"/><g><g><path d="m320.627 256-32.313-55.969h-33.845v111.938h33.845z" fill="#f7f0eb"/><path d="m223.686 200.031-32.314 55.969 32.314 55.969h30.783v-111.938z" fill="#fffbf5"/></g><path d="m482 212.182v28.818h-78.644l49.917-49.917-21.213-21.213-71.131 71.13h-31.641l-23.654-40.969 15.82-27.402 97.167-26.036-7.765-28.978-68.188 18.271 39.322-68.108 24.957 14.409 15-25.98-75.895-43.819-15 25.981 24.958 14.409-39.323 68.108-18.27-68.188-28.978 7.765 26.035 97.165-15.821 27.403h-25.184l-10 15 10 15h25.184l23.654 40.969-23.654 40.969h-25.184l-10 15 10 15h25.184l15.821 27.403-26.035 97.166 28.978 7.764 18.27-68.188 39.323 68.108-24.958 14.409 15 25.981 75.895-43.819-15-25.98-24.957 14.409-39.322-68.108 68.188 18.271 7.765-28.978-97.166-26.035-15.821-27.403 23.654-40.969h31.641l71.131 71.131 21.213-21.213-49.917-49.918h78.644v28.818h30v-87.636z" fill="#9ccefd"/><path d="m232.346 296.969-23.654-40.969 23.654-40.969h22.123v-30h-22.123l-15.821-27.402 26.036-97.167-28.977-7.764-18.272 68.188-39.322-68.108 24.957-14.409-15-25.981-75.895 43.819 15 25.98 24.958-14.409 39.322 68.108-68.188-18.271-7.765 28.978 97.166 26.035 15.821 27.403-23.654 40.969h-31.642l-71.131-71.13-21.212 21.213 49.917 49.917h-78.644v-28.818h-29.267v87.636h29.267v-28.818h78.644l-49.917 49.918 21.212 21.213 71.131-71.131h31.642l23.654 40.969-15.821 27.403-97.167 26.035 7.765 28.978 68.189-18.271-39.322 68.108-24.958-14.409-15 25.98 75.895 43.819 15-25.981-24.957-14.409 39.322-68.108 18.272 68.188 28.977-7.764-26.036-97.166 15.821-27.403h22.123v-30z" fill="#bedffe"/></g></g></svg>