<svg id="Capa_1" enable-background="new 0 0 512 512" height="512" viewBox="0 0 512 512" width="512" xmlns="http://www.w3.org/2000/svg"><g><g><path d="m357.733 66.885c-7.258-17.523-19.167-33.111-34.317-44.701-18.973-14.513-41.656-22.184-65.596-22.184-13.461 0-26.744 2.559-39.153 7.383l-10 105.142 10 104.702c16.292-.175 33.887-.366 46.216-.5v144.549c0 50.21 40.849 91.058 91.059 91.058s91.058-40.85 91.058-91.059v-203.349c0-49.612-39.88-90.085-89.267-91.041z" fill="#bfe0f5"/><path d="m189.484 24.363c-4.083 3.339-9.248 8.581-13.857 13.971-49.272.201-89.294 40.347-89.294 89.666 0 49.442 40.224 89.667 89.667 89.667 1.277 0 20.798-.206 42.667-.44v-209.844c-10.5 4.081-20.376 9.779-29.183 16.98z" fill="#deedf5"/></g><g><g><g><path d="m218.667 277.333-10 85.334 10 149.333h-132.334 264.667v-70.333l-10-15.755 10-14.245v-134.334z" fill="#bf1c59"/><path d="m218.667 277.333h-132.334v75.334l10 14.985-10 15.015v129.333h132.334z" fill="#d86063"/></g><path d="m176 382.667h-89.667v-30h59.667v-27.667h30z" fill="#e28d69"/><path d="m291.333 489.5h-30v-77.833h89.667v30h-59.667z" fill="#d86063"/></g><g><path d="m372.333 166.333h-153.666l-10 63 10 63h153.666z" fill="#d86063"/><path d="m65 166.333h153.667v126h-153.667z" fill="#e28d69"/></g></g></g></svg>