<svg id="Capa_1" enable-background="new 0 0 512 512" height="512" viewBox="0 0 512 512" width="512" xmlns="http://www.w3.org/2000/svg"><g><g><g><path d="m483.976 0h-142.822l-10 239 10 251.667h142.822v-121.666l-5.001-53.334 5.001-53.335v-64l-5.001-53.333 5.001-53.332z" fill="#7e9ff0"/><path d="m198.333 0v91.667l5 53.332-5 53.333v64l5 53.335-5 53.334v121.666h142.821v-490.667z" fill="#a8baff"/></g><g><path d="m483.976 369v-106.667h-142.822l-10 53.509 10 53.158z" fill="#636ef6"/><path d="m198.333 262.333h142.821v106.667h-142.821z" fill="#7e9ff0"/></g><g><path d="m483.976 198.333v-106.667h-142.822l-10 50.667 10 56z" fill="#636ef6"/><path d="m198.333 91.666h142.821v106.666h-142.821z" fill="#7e9ff0"/></g><g><path d="m370.563 490.667v-72.287h-29.409l-10 39.325 10 32.962z" fill="#5761d9"/><path d="m311.746 418.38h29.409v72.286h-29.409z" fill="#636ef6"/></g></g><g><g><path d="m237.248 489-18.706-61.62-17.03-49.524c-.019-.068-.038-.136-.057-.204l-4.911-22.715c-.012-.047-.025-.095-.037-.142l-48.882-160.819h-14.292l-10.001 177.191 10.001 117.833z" fill="#60b09e"/><path d="m29.419 489h103.914v-295.024h-14.354l-27.192 89.576 5.507 16.799-14.637 13.277-38.811 127.847 4.781 17.191-14.985 16.425z" fill="#7bc5b0"/></g><g><path d="m196.528 354.865-63.195-43.026-4.177 13.347 4.177 22.946 74.818 50.94-74.818 19.308-3.081 15.28 3.081 15.707 85.209-21.987z" fill="#e28d69"/><g fill="#ebb16d"><path d="m43.846 441.475-10.204 33.616 99.691-25.724v-30.987z"/><path d="m82.657 313.628 50.676 34.504v-36.293l-41.546-28.287z"/></g></g></g><g fill="#bfe0f5"><path d="m96 81h30v30h-30z"/><path d="m42.667 155.667h30v30h-30z"/><path d="m512 512h-170.846l-10-15 10-15h170.846z"/></g><path d="m0 482h341.154v30h-341.154z" fill="#deedf5"/></g></svg>