<svg id="Capa_1" enable-background="new 0 0 512 512" height="512" viewBox="0 0 512 512" width="512" xmlns="http://www.w3.org/2000/svg"><g><path d="m81 179.999h30v224h-30z" fill="#e28d69"/><path d="m401 179.999h30v234.667h-30z" fill="#d86063"/><g><path d="m492.342 294.674c0-30.331-24.677-55.008-55.008-55.008h-178.834l-10 52.334 10 46.667h233.842z" fill="#e28d69"/><path d="m74.667 239.667c-30.331 0-55.008 24.676-55.008 55.008v43.992h238.841v-99z" fill="#ebb16d"/></g><g><path d="m463.271 205.667v-110.146h-204.771l-10 59.188 10 50.958z" fill="#e28d69"/><path d="m48.73 95.521h209.77v110.145h-209.77z" fill="#ebb16d"/></g><path d="m0 457.719v38.615-38.628z" fill="#deedf5"/><g><path d="m512 481.333c0-27.322-8.843-49.713-25.572-64.751-14.981-13.465-35.646-20.582-59.761-20.582-42.993 0-91.689-3.545-144.736-10.538-7.218-.952-15.11-2.11-23.431-3.361l-10 50.081 10 64.151h253.5z" fill="#bfe0f5"/><path d="m248.766 380.629c-56.815-8.62-127.523-19.345-177.545-7.024-42.595 10.493-71.214 44.289-71.221 84.1v38.628h258.5v-114.232c-3.187-.479-6.432-.971-9.734-1.472z" fill="#deedf5"/></g><g><path d="m385.215 133.314v88.127c0 26.224 21.335 47.559 47.56 47.559s47.56-21.335 47.56-47.563l-.025-106.977c-.013-40.834-33.228-74.043-74.057-74.043-.005 0-.016 0-.021 0-.718 0-122.156 1.06-147.732.524l-10 52.58 10 39.792h126.715z" fill="#bfe0f5"/><path d="m191.237 29.516c-21.522-7.81-40.259-13.79-68.85-13.85-.066 0-.128 0-.194 0-24.105 0-46.81 9.409-63.94 26.504-17.145 17.108-26.586 39.808-26.586 63.917v27.226h226.833v-92.371c-5.643-.118-10.277-.269-13.861-.453-13.432-.69-35.154-4.35-53.402-10.973z" fill="#deedf5"/></g></g></svg>