<svg id="Capa_1" enable-background="new 0 0 512.077 512.077" height="512" viewBox="0 0 512.077 512.077" width="512" xmlns="http://www.w3.org/2000/svg"><g><g><path d="m111.477 289.44-13.931-6.594c-10.629-5.031-18.662-13.9-22.62-24.973s-3.368-23.025 1.664-33.654c5.031-10.629 13.899-18.662 24.972-22.62s23.025-3.367 33.653 1.664l17.794 8.422z" fill="#e28d69"/><path d="m387.964.039h-30c0 12.353.93 24.101 2.891 35.657-11.466-.874-21.37-8.509-25.052-19.557l-28.461 9.486c8.006 24.02 31.658 44.748 61.078 40.158 4.191 12.57 9.716 25.338 16.724 38.839l30.88-6.834c-19.741-31.916-28.06-65.817-28.06-97.749z" fill="#a51f53"/><g><path d="m472.544 154.562-56.644-56.687h-44.97c-7.603 0-29.521-.003-44.065 34.917 3.07 2.048 6.955 4.33 11.43 6.315 2.139 11.247-3.862 21.039-16.646 25.207-6.518 9.005-13.657 17.244-22.349 23.702l-62.239 68.023-2.394 42.666 2.394 38.941h55.074v115.618h61.902v-109.661c21.951-23.211 33.306-49.958 37.965-79.151 4.203-26.337 3.686-52.053 3.686-52.053l69.452 10.896 13.103-26.206c7.002-14.004 6.103-30.613-5.699-42.527z" fill="#e28d69"/><path d="m174.822 202.501c-39.181 5.188-69.422 38.702-69.422 79.3v50.836l-16.8 47.354v73.272h61.903v-62.722l21.932-52.896h64.626v-81.607z" fill="#ebb16d"/></g><g><path d="m299.3 221.666v-33.65c-11.418 8.484-25.518 13.89-44.431 13.89l-17.809-.032-13.06 26.298 13.061 55.733c34.319 0 62.239-27.921 62.239-62.239z" fill="#a51f53"/><path d="m174.822 202.501v19.165c0 34.319 27.921 62.239 62.239 62.239v-82.031l-51.641-.093c-3.596-.001-7.128.26-10.598.72z" fill="#bf1c59"/></g><path d="m360.995 174.252c12.258 0 24.148-3.007 35.288-9.012l-14.234-26.408c-16.068 8.661-31.968 5.502-43.753.275-5.499 8.525-10.828 17.168-16.646 25.207 1.94.974 3.982 1.926 6.119 2.831 11.188 4.741 22.352 7.107 33.226 7.107z" fill="#d86063"/></g><g><path d="m512.077 512.039-.077-15.078c-.109-21.178-7.264-40.66-20.692-56.338-13.803-16.116-34.051-27.742-58.555-33.621-48.311-11.592-107.479-1.961-159.681 6.536-12.741 2.074-24.822 4.036-36.011 5.562l-10.001 46.47 10.001 46.47h275.016z" fill="#bfe0f5"/><path d="m94.239 426.04c-3.562-.005-7.053-.01-10.469-.01-26.527 0-47.459 6.655-62.216 19.781-14.1 12.543-21.554 30.257-21.554 51.228v15h237.061v-92.939c-50.854 6.661-103.166 6.994-142.822 6.94zm142.508-6.898c.076-.01.163-.022.229-.031-.097.013-.176.024-.229.031z" fill="#deedf5"/></g></g></svg>