<svg id="Capa_1" enable-background="new 0 0 512 512" height="512" viewBox="0 0 512 512" width="512" xmlns="http://www.w3.org/2000/svg"><g><g><g><path d="m274.409 490.334-111.317-366.691h-14.352l-20 236.912 17.138 129.779z" fill="#60b09e"/><path d="m23.069 490.334h125.671v-366.691h-14.354l-35.193 115.93-.193 18.261-8.924 11.772-48.685 160.374 1.276 15.354-11.449 18.157z" fill="#7bc5b0"/></g><g><path d="m230.589 413.12-7.29-29.101-74.559 18.838-10 19.809 10 11.133z" fill="#e28d69"/><path d="m31.218 463.492 117.522-29.693v-30.942l-107.349 27.122z" fill="#ebb16d"/></g><g><path d="m199.601 343.432 16.884-24.798-67.745-45.664-10 17.333 10 18.845z" fill="#e28d69"/><path d="m90.076 269.606 58.664 39.542v-36.178l-49.547-33.397z" fill="#ebb16d"/></g></g><path d="m0 497h512" fill="#f9f9f9"/><path d="m96 38.334h30v30h-30z" fill="#deedf5"/><path d="m42.667 113h30v30h-30z" fill="#deedf5"/><g><g><path d="m285.11 57.667v49h30v-49h22.333v-30h-22.333v-27.667h-30v27.667h-.043l-10 13.255 10 16.745z" fill="#cfcacc"/><path d="m262.776 27.667h22.29v30h-22.29z" fill="#dcdcdc"/></g><g><path d="m486.331 490.334v-260.734l-115.931-152-85.333-.001-30.598 156.187v256.548z" fill="#7e9ff0"/><g><path d="m400.998 490.334v-260.734l-115.931-152.001-30 240.222 26.652 172.513z" fill="#bfe0f5"/><path d="m285.067 490.334v-412.735l-115.932 152.001v260.734z" fill="#deedf5"/></g></g><g><g><path d="m318.731 256c0-18.563-15.102-33.664-33.664-33.664l-12.081 33.664 12.081 33.664c18.562.001 33.664-15.101 33.664-33.664z" fill="#deedf5"/><path d="m251.402 256c0 18.563 15.102 33.664 33.664 33.664v-67.329c-18.562.001-33.664 15.103-33.664 33.665z" fill="#f9f9f9"/></g><path d="m285.067 209-2 9.001 2 10.133c15.366 0 27.866 12.501 27.866 27.866 0 15.366-12.501 27.866-27.866 27.866l-2 8.933 2 10.2c25.916 0 47-21.084 47-47 0-25.915-21.084-46.999-47-46.999z" fill="#7e9ff0"/><path d="m257.201 256c0-15.365 12.501-27.866 27.866-27.866v-19.134c-25.916 0-47 21.084-47 47s21.084 47 47 47v-19.134c-15.366 0-27.866-12.5-27.866-27.866z" fill="#a8baff"/></g><g><g><path d="m337.802 490.334v-100.598c0-29.079-23.657-52.736-52.735-52.736l-10 79.642 9.35 73.692z" fill="#e28d69"/><path d="m285.067 490.334v-153.334c-29.079 0-52.735 23.657-52.735 52.736v100.598z" fill="#ebb16d"/></g><g><path d="m296.085 405.623h-11.018l-4.001 10.605 4.001 11.432h11.018z" fill="#eab065"/><path d="m274.049 405.623h11.018v22.036h-11.018z" fill="#ffc869"/></g></g></g><g><path d="m512 512h-226.927l-10-15 10-15h226.927z" fill="#cfcacc"/><path d="m0 482h285.073v30h-285.073z" fill="#dcdcdc"/></g></g></svg>