<svg id="Capa_1" enable-background="new 0 0 512 512" height="512" viewBox="0 0 512 512" width="512" xmlns="http://www.w3.org/2000/svg"><g><path d="m323.889 0c-.005 0-.01 0-.014 0h.04c-.009 0-.017 0-.026 0z" fill="#deedf5"/><g><g><path d="m274.272 245.472h-65.528l-67.926-19.768-47.667 19.761v266.535h94.334v-165.094h86.787z" fill="#7e9ff0"/><path d="m153.374 170.896c-13.719 0-27.143 2.559-39.9 7.607-9.503 3.76-19.885 5.667-29.276 5.667-30.531 0-55.37 24.839-55.37 55.37v80.689c0 25.996 21.149 47.146 47.146 47.146 25.996 0 47.146-21.149 47.146-47.146v-74.765h85.625v-19.199c-.001-30.53-24.84-55.369-55.371-55.369z" fill="#deedf5"/></g><g><path d="m455.326 79.973-96.937 12.69-10.001 215.538 10.001 203.799h124.783v-341.883z" fill="#eab065"/><path d="m233.605 108.999v403.001h124.784v-419.337z" fill="#ffc869"/></g><g><path d="m405.444 416.228c0-25.988-21.067-47.055-47.055-47.055l-10 42.617 10 51.494c25.987-.001 47.055-21.069 47.055-47.056z" fill="#60b09e"/><path d="m311.333 416.228c0 25.988 21.067 47.055 47.055 47.055v-94.111c-25.988 0-47.055 21.068-47.055 47.056z" fill="#7bc5b0"/></g><g><path d="m405.444 307.308c0-25.988-21.067-47.055-47.055-47.055l-10 44.556 10 49.555c25.987-.001 47.055-21.068 47.055-47.056z" fill="#d86063"/><path d="m311.333 307.308c0 25.988 21.067 47.055 47.055 47.055v-94.111c-25.988.001-47.055 21.068-47.055 47.056z" fill="#e28d69"/></g><g><path d="m405.444 198.389c0-25.988-21.067-47.055-47.055-47.055l-10 43.649 10 50.462c25.987-.001 47.055-21.069 47.055-47.056z" fill="#bf1c59"/><path d="m311.333 198.389c0 25.988 21.067 47.055 47.055 47.055v-94.111c-25.988 0-47.055 21.068-47.055 47.056z" fill="#d86063"/></g><g><path d="m431.847 23.179c-10.961-.608-28.036-3.669-35.979-6-6.274-1.84-11.931-3.973-17.4-6.035-6.336-2.389-12.766-4.813-20.078-6.788l-10 58.102 10 46.541h29.664v60.442c0 26.225 21.335 47.56 47.56 47.56s47.56-21.335 47.56-47.56v-91.963c-.002-28.85-22.547-52.7-51.327-54.299z" fill="#bfe0f5"/><path d="m323.915 0h-.04c-49.776.008-90.269 40.506-90.269 90.284v18.715h124.783v-104.643c-9.451-2.552-20.375-4.354-34.474-4.356z" fill="#deedf5"/></g></g></g></svg>