<svg id="Capa_1" enable-background="new 0 0 512 512" height="512" viewBox="0 0 512 512" width="512" xmlns="http://www.w3.org/2000/svg"><g><path d="m256 244.389v-33.416" fill="#f9f9f9"/><g fill="#bfe0f5"><path d="m410.984 115.588h48.665v30h-48.665z" transform="matrix(.887 -.463 .463 .887 -11.035 216.171)"/><path d="m403.021 219.011h30v65.119h-30z" transform="matrix(.463 -.887 .887 .463 1.628 505.827)"/><path d="m445.167 177.982h66.833v30h-66.833z"/></g><g fill="#deedf5"><path d="m61.684 106.256h30v48.665h-30z" transform="matrix(.463 -.887 .887 .463 -74.565 138.174)"/><path d="m61.419 236.571h65.119v30h-65.119z" transform="matrix(.887 -.463 .463 .887 -105.709 72.002)"/><path d="m0 177.982h66.833v30h-66.833z"/></g><g><g><path d="m293.733 512v-237.191h-37.733l-5 121.524 5 115.667z" fill="#cfcacc"/><path d="m218.267 274.809h37.733v237.191h-37.733z" fill="#dcdcdc"/></g><g><path d="m335 241 39.415-114.42-118.415-34.375-10 85.504 10 72.699z" fill="#eab065"/><path d="m134.333 114.586 42.667 126.414 79 9.408v-158.203z" fill="#ffc869"/></g><g><path d="m320.51 13.861h-.836c-13.994 0-42.273-.785-63.674-2.882l-5 53.025 5 50.581h24.53v29.555c0 26.781 21.788 48.569 48.568 48.569s48.568-21.788 48.568-48.569v-73.122c.001-31.516-25.64-57.157-57.156-57.157z" fill="#bfe0f5"/><path d="m233.703 7.451c-15.682-4.6-28.214-7.451-42.213-7.451-31.517 0-57.157 25.641-57.157 57.157v57.429h121.667v-103.607c-9.318-.913-17.338-2.073-22.297-3.528z" fill="#deedf5"/></g><g><path d="m271 244.389h-15l-5-18.177 5-15.239h15z" fill="#dcdcdc"/><path d="m241 210.973h15v33.416h-15z" fill="#f9f9f9"/></g><g><path d="m335 266.667v-25.667h-79l-10 54.986 10 49.681c43.56 0 79-35.439 79-79z" fill="#bab4ba"/><path d="m177 266.667c0 43.561 35.439 79 79 79v-104.667h-79z" fill="#cfcacc"/></g></g></g></svg>