<svg id="Capa_1" enable-background="new 0 0 512 512" height="512" viewBox="0 0 512 512" width="512" xmlns="http://www.w3.org/2000/svg"><g><g><path d="m255.999 30c24.112 0 43.73 19.617 43.73 43.73v54.27h30v-54.27c0-40.655-33.075-73.73-73.73-73.73-.112 0-.221.008-.333.008l-10 13.971 10 16.029c.112 0 .222-.008.333-.008z" fill="#eab065"/><path d="m182.27 73.73v54.27h30v-54.27c0-24.001 19.438-43.541 43.396-43.722v-30c-40.501.182-73.396 33.179-73.396 73.722z" fill="#ffc869"/></g><g><path d="m442.533 512-5.645-100.465-181.221-10.001-10 57.347 10 53.119z" fill="#8a1a45"/><path d="m69.467 512h186.2v-110.466l-180.555 10.001z" fill="#a51f53"/></g><g><path d="m436.888 411.535-2.099-37.35-16.622-110.852 4.66-102.032-3.313-58.967h-163.847l-10 156.744 10 152.457z" fill="#a51f53"/><path d="m75.112 411.535h180.555v-309.201h-163.181z" fill="#bf1c59"/></g><g><path d="m422.827 161.301c-43.582-5.275-93.441 8.48-118.762 24.674-24.388 15.596-41.238 34.86-53.928 52.586l29.86 88.398c62.984 0 136.967 37.603 154.792 47.227z" fill="#e28d69"/><g><path d="m266.13 244.612-10.463-13.554-10.001 58.775 10.001 69.911 30.465 8.927 1.67-57.36 32.365-47.386z" fill="#eab065"/><path d="m231.064 199.189-35.066 45.423-54.037 19.313 32.365 47.386 1.67 57.36 55.068-16.137 24.603 7.21v-128.686z" fill="#ffc869"/></g></g></g></svg>