<svg id="Capa_1" enable-background="new 0 0 512 512" height="512" viewBox="0 0 512 512" width="512" xmlns="http://www.w3.org/2000/svg"><g><g><path d="m264.667 100.334h-15.001l-10-15 10-15h15.001z" fill="#bfe0f5"/><path d="m234.666 70.334h15v30h-15z" fill="#deedf5"/></g><g><path d="m264.667 145h30v30h-30z" fill="#bfe0f5"/></g><g><path d="m454.333 334.906v30c15.255 0 27.667 12.411 27.667 27.667 0 15.255-12.411 27.667-27.667 27.667h-118.333v-57.573h-30v57.573h-56.334l-10 16.761 10 13.239h204.667c31.797 0 57.667-25.869 57.667-57.667s-25.869-57.667-57.667-57.667z" fill="#cfcacc"/><path d="m125.999 420.239v-57.572h-30v57.572h-95.999v30h249.666v-30z" fill="#dfdbdd"/></g><g><path d="m431.137 206.906h-72.423c-33.662 0-61.048 27.386-61.048 61.048v13.618h-27.302c-2.106-24.691-9.374-47.929-20.697-68.647l-10 115.597 10 47.049h152.666v-138.665h28.805v-30z" fill="#a51f53"/><path d="m179.917 143.038-17.086-27.908h-125.83v260.443h212.665v-162.647c-16.081-29.424-40.355-53.758-69.749-69.888z" fill="#bf1c59"/></g><path d="m124.607 61.761c-13.741-.007-27.186 2.552-39.96 7.607-9.503 3.76-19.885 5.667-29.276 5.667-30.581-.001-55.371 24.789-55.371 55.369v79.898c0 25.816 20.424 47.439 46.235 47.928 26.411.501 48.056-20.838 48.056-47.137v-89.521c27.742.659 55.041 7.095 80.156 18.897l5.469 2.57v-25.909c0-30.554-24.755-55.352-55.309-55.369z" fill="#deedf5"/></g></svg>