<svg id="Capa_1" enable-background="new 0 0 511.503 511.503" height="512" viewBox="0 0 511.503 511.503" width="512" xmlns="http://www.w3.org/2000/svg"><g><g><path d="m127.351 383.752c-.63 0-1.26-.006-1.892-.017l-73.866-1.349-1.349-73.865c-.497-27.231 9.738-52.929 28.819-72.361 19.082-19.432 44.589-30.134 71.823-30.134h77.067v77.067c0 27.234-10.702 52.742-30.134 71.823-18.98 18.639-43.941 28.836-70.468 28.836z" fill="#5bb59b"/><path d="m111.477 248.06h118.889v30h-118.889z" fill="#3f6279" transform="matrix(.707 -.707 .707 .707 -135.949 197.908)"/></g><g><path d="m432.438 180.932c-19.082-19.433-44.589-30.135-71.823-30.135h-77.067v77.067c0 27.235 10.702 52.742 30.135 71.823 18.982 18.639 43.941 28.836 70.468 28.836.63 0 1.262-.006 1.893-.017l73.865-1.348 1.349-73.865c.496-27.23-9.738-52.928-28.82-72.361z" fill="#5c9296"/><path d="m325.581 148.387h30v118.889h-30z" fill="#3f6279" transform="matrix(.707 -.707 .707 .707 -47.205 301.7)"/></g><g><path d="m301.371 316.585-54.495-54.495-10 159.91 10 89.503 53.184-51.277c19.606-18.903 30.541-44.312 30.789-71.545.248-27.234-10.221-52.838-29.478-72.096z" fill="#5c9296"/><path d="m192.381 316.585c-19.258 19.257-29.727 44.861-29.478 72.094.248 27.233 11.183 52.643 30.789 71.546l53.184 51.277v-249.412z" fill="#7bc5b0"/><path d="m261.876 402.192h-15l-10-46.412 10-72.476h15z" fill="#304b5e"/><path d="m231.876 283.304h15v118.889h-15z" fill="#3f6279"/></g><g><path d="m237.082 75.554-33.472-23.773c-21.753-15.45-49.995-17.444-73.704-5.203s-38.437 36.42-38.437 63.103 14.728 50.862 38.437 63.103c10.318 5.327 21.491 7.958 32.617 7.958 14.44 0 28.8-4.435 41.087-13.161l33.472-23.773z" fill="#e28d69"/><path d="m363.845 46.578c-23.708-12.241-51.95-10.247-73.705 5.203l-35.058 24.9v66l35.058 24.9c12.289 8.727 26.646 13.161 41.087 13.161 11.125 0 22.301-2.631 32.617-7.958 23.709-12.241 38.437-36.42 38.437-63.103.001-26.682-14.727-50.862-38.436-63.103z" fill="#d86063"/></g><g><path d="m261.093 217.589c-4.89 0-9.645.578-14.217 1.636l-10 64.078 10 58.737c4.573 1.059 9.327 1.637 14.217 1.637 34.763 0 63.044-28.282 63.044-63.044s-28.281-63.044-63.044-63.044z" fill="#8a1a45"/><path d="m198.049 280.633c0 29.873 20.891 54.941 48.827 61.408v-122.815c-27.935 6.466-48.827 31.534-48.827 61.407z" fill="#a51f53"/></g><g><path d="m261.876 0h-15l-10 59.161 10 88.09h15z" fill="#e28d69"/><path d="m231.876 0h15v147.251h-15z" fill="#ebb16d"/></g><g><path d="m313.548 181.801c0-36.763-29.909-66.672-66.672-66.672l-10 66.672 10 66.672c36.763 0 66.672-29.909 66.672-66.672z" fill="#a51f53"/><path d="m180.204 181.801c0 36.763 29.909 66.672 66.672 66.672v-133.344c-36.763 0-66.672 29.909-66.672 66.672z" fill="#bf1c59"/></g></g></svg>