<svg id="Capa_1" enable-background="new 0 0 512 512" height="512" viewBox="0 0 512 512" width="512" xmlns="http://www.w3.org/2000/svg"><g><g><path d="m431 0h-175l-10 260.471 10 251.529h175z" fill="#e28d69"/><path d="m81 0h175v512h-175z" fill="#ebb16d"/></g><path d="m370.333 273h39.5v30h-39.5z" fill="#d86063"/><g><path d="m371 353.678h-115l-10 54.85 10 43.472h115z" fill="#d86063"/><path d="m141 353.678h115v98.322h-115z" fill="#e28d69"/></g><g><g><g><path d="m256 60-10.667 110.667 10.667 119.333c63.411 0 115-51.589 115-115s-51.589-115-115-115z" fill="#5c9296"/><path d="m141 175c0 63.411 51.589 115 115 115v-230c-63.412 0-115 51.589-115 115z" fill="#7bc5b0"/></g><g fill="#3f6279"><path d="m220.152 316h-30c0-40.905 12.571-82.092 36.354-119.108l25.239 16.216c-20.964 32.629-31.593 67.246-31.593 102.892z"/><path d="m321.848 316h-30c0-35.646-10.63-70.263-31.594-102.892l25.24-16.216c23.783 37.016 36.354 78.203 36.354 119.108z"/></g></g><g><path d="m256 130-10 31.813 10 58.187c24.814 0 45-20.187 45-45s-20.186-45-45-45z" fill="#e28d69"/><path d="m211 175c0 24.813 20.187 45 45 45v-90c-24.813 0-45 20.187-45 45z" fill="#ebb16d"/></g></g></g></svg>