<svg id="Capa_1" enable-background="new 0 0 511.935 511.935" height="512" viewBox="0 0 511.935 511.935" width="512" xmlns="http://www.w3.org/2000/svg"><g><g><path d="m231.576 115.771-21.531-20.89-31.183 32.141-6.034-29.641 45.406-46.801-21.531-20.89-31.124 32.08-12.574-61.77-29.397 5.984 13.502 66.328-48.174-13.216-7.937 28.93 62.818 17.235 6.559 32.221-48.098-13.196-7.937 28.931 62.742 17.213 22.333 109.71 27.25-16.531-20.555-100.976z" fill="#bf1c59"/><path d="m409.657 124.286-48.098 13.196 6.559-32.221 62.818-17.235-7.937-28.93-48.174 13.216 13.502-66.328-29.397-5.984-12.574 61.77-31.124-32.08-21.531 20.89 45.406 46.801-6.033 29.641-31.184-32.141-21.531 20.89 45.465 46.862-20.555 100.976 26.799 18.745 22.784-111.924 62.743-17.213z" fill="#a51f53"/></g><g><path d="m164.127 307.881 25.005-36.309-4.83-11.765c-18.581-45.246-62.192-74.482-111.105-74.482h-56.229v43.505z" fill="#ebb16d"/><path d="m91.112 347.515 37.855 11.42 35.16-51.054-1.876-4.569c-18.581-45.246-62.192-74.482-111.106-74.482h-34.177v20.978c0 45.327 30.489 85.506 74.144 97.707z" fill="#e28d69"/></g><g><path d="m347.808 307.881-25.005-36.309 4.83-11.765c18.581-45.246 62.192-74.482 111.105-74.482h56.23v43.505z" fill="#e28d69"/><path d="m420.823 347.515-37.855 11.42-35.16-51.054 1.876-4.569c18.581-45.246 62.193-74.482 111.106-74.482h34.178v20.978c0 45.327-30.49 85.506-74.145 97.707z" fill="#d86063"/></g><g><path d="m255.968 249.602-10.001 33.833 10.001 26.167c40.436 0 73.333 32.898 73.333 73.333 0 18.258-6.748 35.75-19 49.252l-15.567 17.155v62.594h60v-39.428c21.479-23.669 34.568-55.092 34.568-89.572-.001-73.639-59.697-133.334-133.334-133.334z" fill="#5c9296"/><path d="m122.634 382.935c0 34.48 13.089 65.903 34.568 89.572v39.428h60v-62.594l-15.567-17.155c-12.252-13.502-19-30.993-19-49.252 0-40.436 32.897-73.333 73.333-73.333v-60c-73.638.001-133.334 59.696-133.334 133.334z" fill="#7bc5b0"/></g></g></svg>