<svg id="Capa_1" enable-background="new 0 0 512.081 512.081" height="512" viewBox="0 0 512.081 512.081" width="512" xmlns="http://www.w3.org/2000/svg"><g><g><path d="m369.342 286.01-98.302 192.193v-190.262h-14.769l-5 149.534 5 74.565h31.158l108.622-212.369z" fill="#cfcacc"/><path d="m241.04 287.941v190.261l-98.301-192.192-26.709 13.661 108.621 212.369h31.62v-224.099z" fill="#dcdcdc"/></g><path d="m239.065 230.024c-30.877-62.275-106.658-87.821-168.936-56.945-30.168 14.957-52.705 40.767-63.46 72.674-10.755 31.908-8.442 66.095 6.516 96.262 17.298 34.888 44.839 61.408 77.552 74.674 15.292 6.201 31.049 9.291 46.626 9.291 17.93 0 35.62-4.095 52.079-12.256 30.758-15.25 52.816-42.514 62.112-76.769 9.243-34.066 4.809-72.042-12.489-106.931z" fill="#7bc5b0"/><path d="m505.418 245.796c-10.746-31.879-33.263-57.666-63.403-72.609s-64.296-17.257-96.176-6.51c-31.88 10.746-57.666 33.263-72.609 63.403-17.283 34.857-21.713 72.799-12.477 106.836 9.287 34.225 31.325 61.464 62.056 76.7 16.445 8.154 34.117 12.245 52.032 12.245 15.561 0 31.308-3.088 46.584-9.283 32.683-13.254 60.2-39.75 77.482-74.607 14.946-30.14 17.257-64.295 6.511-96.175z" fill="#bf1c59"/><g><path d="m327.544 85.914-19.203-24.874h-52.301l-11.088 105.047 11.088 139.892 112.291 32.905 3.404-116.963 65.995-96.626z" fill="#e28d69"/><path d="m203.739 61.04-19.202 24.874-110.187 39.381 65.996 96.626 3.404 116.963 112.29-32.905v-244.939z" fill="#ebb16d"/></g><g><path d="m344.707 68.684c0-30.531-24.839-55.37-55.37-55.37-9.392 0-19.773-1.907-29.277-5.667-1.304-.529-2.65-1.026-4.019-1.502l-10.001 42.395 10 44.52.276 54.71c.211 24.408 20.058 44.084 44.467 44.084 24.68 0 44.639-20.098 44.467-44.777z" fill="#bfe0f5"/><path d="m220.161.04c-30.531 0-55.37 24.839-55.37 55.37v37.641l91.052.008.197-86.914c-11.423-3.973-24.835-6.105-35.879-6.105z" fill="#deedf5"/></g></g></svg>