<svg id="Capa_1" enable-background="new 0 0 511.486 511.486" height="512" viewBox="0 0 511.486 511.486" width="512" xmlns="http://www.w3.org/2000/svg"><g><g><g><path d="m488.667 203.904c-3.032-5.915-5.896-11.502-6.997-16.35-1.182-5.198-1.033-11.681-.876-18.544.258-11.261.55-24.024-5.137-35.812-5.781-11.982-16.037-19.747-25.086-26.598-5.387-4.079-10.476-7.931-13.682-11.946-3.244-4.062-5.892-9.912-8.695-16.104-4.665-10.305-9.951-21.984-20.28-30.232-10.284-8.212-22.821-10.779-33.882-13.043-6.688-1.37-13.004-2.663-17.738-4.947-4.559-2.199-9.407-6.268-14.54-10.577-8.73-7.328-18.625-15.633-31.711-18.607-12.624-2.869-24.922.238-35.774 2.979-6.728 1.7-13.083 3.306-18.525 3.306l-11.034 239.126 11.033 227.107 60.046 1.708c10.313-3.773 18.561-10.677 25.964-16.891 5.133-4.309 9.981-8.378 14.539-10.577 4.733-2.284 11.05-3.577 17.737-4.946 11.061-2.265 23.598-4.832 33.882-13.043 10.329-8.248 15.617-19.927 20.281-30.232 2.803-6.193 5.451-12.042 8.695-16.104 3.206-4.015 8.295-7.868 13.683-11.947 9.048-6.851 19.305-14.615 25.085-26.597 5.687-11.789 5.395-24.552 5.137-35.813-.157-6.863-.305-13.345.876-18.544 1.102-4.847 3.965-10.435 6.997-16.35 5.211-10.166 11.116-21.687 11.116-35.211.002-13.523-5.904-25.045-11.114-35.211z" fill="#5c9296"/><path d="m201.445 1.144c-13.087 2.974-22.982 11.28-31.712 18.607-5.133 4.309-9.981 8.378-14.539 10.577-4.733 2.284-11.05 3.577-17.737 4.946-11.061 2.265-23.598 4.832-33.882 13.043-10.329 8.248-15.617 19.927-20.282 30.232-2.803 6.193-5.451 12.042-8.695 16.104-3.206 4.015-8.295 7.868-13.683 11.947-9.049 6.851-19.305 14.615-25.085 26.598-5.688 11.788-5.395 24.552-5.138 35.813.157 6.863.305 13.345-.876 18.544-1.102 4.847-3.965 10.435-6.997 16.35-5.21 10.166-11.116 21.688-11.116 35.211 0 13.524 5.905 25.045 11.116 35.211 3.032 5.915 5.896 11.502 6.997 16.35 1.182 5.198 1.033 11.681.876 18.544-.258 11.261-.55 24.024 5.137 35.812 5.781 11.982 16.037 19.747 25.086 26.598 5.387 4.079 10.476 7.931 13.682 11.946 3.244 4.062 5.892 9.912 8.695 16.104 4.665 10.305 9.951 21.984 20.28 30.232 10.285 8.212 22.821 10.779 33.883 13.043 6.687 1.369 13.003 2.663 17.736 4.946 4.559 2.2 9.408 6.269 14.541 10.578 7.402 6.214 15.651 13.118 25.964 16.891l60.046-1.708v-466.234c-5.442 0-11.797-1.606-18.525-3.306-10.85-2.742-23.147-5.847-35.772-2.979z" fill="#7bc5b0"/></g><g><path d="m361.645 214.834c-2.041-8.98-3.09-17.389-3.602-24.957-5.622-5.121-11.568-11.193-17.337-18.417-5.811-7.277-10.447-14.472-14.215-21.13-7.307-2.195-15.324-5.11-23.68-9.142-8.273-3.991-15.474-8.409-21.681-12.723-7.563 1.196-16.078 2.05-25.386 2.05l-10.001 89.148 10.001 128.053c9.309 0 17.822.854 25.386 2.05 6.208-4.314 13.408-8.731 21.681-12.723 8.357-4.031 16.373-6.947 23.68-9.142 3.769-6.658 8.403-13.85 14.213-21.126 5.77-7.226 11.717-13.3 17.34-18.421.512-7.57 1.56-15.977 3.601-24.958 2.066-9.089 4.811-17.196 7.674-24.28-2.864-7.085-5.609-15.192-7.674-24.282z" fill="#deedf5"/><path d="m230.357 128.464c-6.208 4.314-13.407 8.731-21.679 12.721-8.357 4.032-16.375 6.948-23.682 9.143-3.768 6.658-8.402 13.851-14.213 21.126-5.77 7.226-11.717 13.3-17.34 18.421-.512 7.569-1.56 15.977-3.601 24.958-2.066 9.089-4.81 17.196-7.674 24.281 2.863 7.084 5.608 15.192 7.674 24.281 2.041 8.981 3.09 17.388 3.602 24.957 5.622 5.12 11.57 11.194 17.338 18.419 5.81 7.277 10.446 14.471 14.214 21.129 7.306 2.195 15.323 5.11 23.68 9.142 8.273 3.992 15.473 8.408 21.681 12.722 7.564-1.195 16.078-2.05 25.386-2.05v-217.2c-9.308 0-17.822-.854-25.386-2.05z" fill="#fffbf5"/></g></g><g><g><path d="m174.06 220.293c-16.839-9.61-36.902-9.537-53.67.199-16.767 9.736-26.777 27.124-26.777 46.512v51.547c0 19.389 10.01 36.776 26.777 46.512 8.443 4.902 17.721 7.355 27.003 7.355 9.151 0 18.307-2.385 26.667-7.156l32.811-18.729v-107.511z" fill="#ebb16d"/><path d="m390.658 220.492c-16.767-9.736-36.831-9.81-53.67-.199l-32.811 18.729v107.511l32.811 18.729c8.361 4.772 17.514 7.156 26.667 7.156 9.281 0 18.561-2.453 27.003-7.355 16.767-9.736 26.777-27.124 26.777-46.512v-51.547c.001-19.388-10.01-36.776-26.777-46.512z" fill="#e28d69"/></g><g><path d="m255.743 342.823-10 70.831 10 80.388 60.046 17.444v-158.662z" fill="#bf1c59"/><path d="m195.697 352.824v158.662l60.046-17.444v-151.219z" fill="#d86063"/></g><g><path d="m255.743 232.732-10 61.736 10 58.356h60.046v-120.092z" fill="#d86063"/><path d="m195.697 232.732h60.046v120.092h-60.046z" fill="#e28d69"/></g></g></g></svg>