<svg id="Capa_1" enable-background="new 0 0 512 512" height="512" viewBox="0 0 512 512" width="512" xmlns="http://www.w3.org/2000/svg"><g><path d="m47 261.721-30 8.002v168.5h-17v30h64v-30h-17z" fill="#3f6279"/><path d="m495 269.723-30-8.002v176.502h-17v30h64v-30h-17z" fill="#304b5e"/><g><path d="m495 107.556h-239.54l-10 100.141 10 62.026h239.54z" fill="#60b09e"/><path d="m17 107.556h238.46v162.167h-238.46z" fill="#7bc5b0"/></g><ellipse cx="430.907" cy="123.699" fill="#bfe0f5" rx="49.093" ry="49.093" transform="matrix(.969 -.247 .247 .969 -17.207 110.417)"/><ellipse cx="81.093" cy="123.699" fill="#deedf5" rx="49.093" ry="49.093" transform="matrix(.38 -.925 .925 .38 -64.138 151.729)"/><circle cx="134.563" cy="241.115" fill="#deedf5" r="49.093"/><ellipse cx="377.436" cy="241.115" fill="#bfe0f5" rx="49.093" ry="49.093" transform="matrix(.962 -.273 .273 .962 -51.503 112.25)"/><g><path d="m288.244 85.546-32.244-41.769-5 77.922 5 63.084 50.637 14.838 1.535-52.744 29.76-43.573z" fill="#e28d69"/><path d="m223.756 85.546-49.688 17.758 29.76 43.573 1.535 52.744 50.637-14.838v-141.006z" fill="#ebb16d"/></g></g></svg>