<svg id="Capa_1" enable-background="new 0 0 511.776 511.776" height="512" viewBox="0 0 511.776 511.776" width="512" xmlns="http://www.w3.org/2000/svg"><g><g><path d="m276.042 284.955c80.537-1.895 160.683-15.14 235.734-39.755l-9.35-28.506c-72.08 23.641-149.038 36.396-226.385 38.285v29.976z" fill="#e28d69"/><path d="m233.516 254.927c-76.6-2.076-152.775-14.817-224.167-38.231l-9.349 28.506c74.363 24.389 153.725 37.617 233.516 39.701z" fill="#ebb16d"/></g><path d="m92.286 240.392c-12.947-5.275-27.17-5.192-40.054.232-12.883 5.424-22.883 15.541-28.158 28.486l-8.619 21.153c-7.882 19.343-4.773 41.573 8.111 58.013l16.293 20.788 26.181-3.483c20.705-2.754 38.464-16.481 46.345-35.825l8.618-21.154c10.889-26.723-1.994-57.322-28.717-68.21z" fill="#d86063"/><path d="m182.499 184.388-6.558-25.585-25.371-7.338c-20.068-5.804-41.845-.376-56.839 14.165l-16.398 15.902c-20.715 20.09-21.224 53.287-1.134 74.002 10.247 10.566 23.904 15.875 37.576 15.875 13.132 0 26.277-4.898 36.426-14.741l16.396-15.902c14.995-14.541 21.089-36.144 15.902-56.378z" fill="#e28d69"/><g><path d="m497.84 297.819-5.516-22.167c-6.969-28.003-35.421-45.114-63.422-38.147-28.002 6.968-45.115 35.418-38.147 63.421l5.516 22.165c5.044 20.27 20.664 36.389 40.765 42.065l25.418 7.179 19.088-18.253c15.097-14.435 21.341-35.994 16.298-56.263z" fill="#bf1c59"/><path d="m434.516 181.532-16.396-15.901c-14.995-14.543-36.775-19.97-56.84-14.166l-25.372 7.339-6.557 25.585v-.001c-5.186 20.233.906 41.836 15.9 56.377l16.397 15.903c9.838 9.54 22.739 14.765 36.412 14.765.274 0 .549-.002.824-.006 13.977-.214 27.034-5.859 36.765-15.894 20.09-20.714 19.581-53.911-1.133-74.001z" fill="#d86063"/></g><g><path d="m353.925 59.555h30v30h-30z" fill="#eab065"/><path d="m449.925 112.888h30v30h-30z" fill="#eab065"/><path d="m127.924 59.555h30v30h-30z" fill="#ffc869"/><path d="m31.924 112.888h30v30h-30z" fill="#ffc869"/><g><path d="m270.925 123.221v-30h-14.935l-10.732 13.334 10.732 16.666z" fill="#eab065"/><path d="m240.924 93.221h15.066v30h-15.066z" fill="#ffc869"/></g><path d="m375.258 390.221h30v30h-30z" fill="#eab065"/><path d="m106.591 390.221h30v30h-30z" fill="#ffc869"/><g><path d="m270.925 452.221v-30h-14.935l-10 15 10 15z" fill="#eab065"/><path d="m240.924 422.221h15.066v30h-15.066z" fill="#ffc869"/></g></g><path d="m242.731 261.005c-12.402-6.45-26.574-7.685-39.903-3.477-13.331 4.208-24.224 13.355-30.674 25.757l-10.54 20.264c-9.638 18.531-8.601 40.953 2.707 58.515l14.298 22.207 26.392-1.044h-.001c20.871-.825 39.824-12.85 49.462-31.381l10.54-20.264c13.316-25.601 3.321-57.262-22.281-70.577z" fill="#7bc5b0"/><g><path d="m350.234 303.55-10.54-20.265c-6.45-12.402-17.344-21.549-30.674-25.757-13.332-4.209-27.502-2.975-39.902 3.477-4.929 2.564-9.333 5.838-13.128 9.68l-10 42.871 10 35.624 1.387 2.667c9.637 18.532 28.59 30.557 49.462 31.382l26.391 1.044 14.299-22.207c11.307-17.564 12.344-39.986 2.705-58.516z" fill="#6c7bf0"/><path d="m243.36 291.679c-4.208 13.33-2.973 27.501 3.477 39.903l9.153 17.597v-78.495c-5.754 5.824-10.094 12.962-12.63 20.995z" fill="#7e9ff0"/></g><g><path d="m278.856 168.208-22.866-13.067-10 72.414 10 66.49c28.826-.035 52.268-23.497 52.268-52.332v-22.841c0-20.887-11.266-40.301-29.402-50.664z" fill="#a51f53"/><path d="m255.925 155.104-22.933 13.104c-18.135 10.363-29.401 29.776-29.401 50.664v22.841c0 28.857 23.477 52.333 52.334 52.333.022 0 .043-.002.065-.002v-138.903z" fill="#bf1c59"/></g></g></svg>