<svg id="Capa_1" enable-background="new 0 0 512 512" height="512" viewBox="0 0 512 512" width="512" xmlns="http://www.w3.org/2000/svg"><g><g><g><path d="m344.917 133.667v-84.667h-45.333v-49h-15l-10 78.037 5.169 55.63z" fill="#bfe0f5"/><path d="m284.584 133.667v-133.667h-15v49h-45.333v84.667z" fill="#deedf5"/></g><g><path d="m427.056 235.667c-2.284-35.03-17.192-67.629-42.413-92.407-26.861-26.392-62.397-40.926-100.059-40.926l-10 83.334 6.944 50h145.528z" fill="#6c7bf0"/><path d="m284.584 235.667v-133.334c-37.662 0-73.197 14.535-100.06 40.926-25.22 24.778-40.128 57.377-42.412 92.407h142.472z" fill="#7e9ff0"/></g><g><path d="m459.584 307.667v-88h-175l-10 31.27 7.409 56.73z" fill="#bfe0f5"/><path d="m109.584 219.667h175v88h-175z" fill="#deedf5"/></g><g><path d="m484.333 490.585v-206.918h-199.749l-20 55.8 17.518 151.118z" fill="#6c7bf0"/><path d="m84.834 283.667h199.75v206.918h-199.75z" fill="#7e9ff0"/></g><g><path d="m395.667 486.185v-99.669l-66.667-43.23-44.416 28.801-10 62.911 6.647 51.187z" fill="#5761d9"/><path d="m284.584 486.185v-114.098l-22.251 14.429v99.669z" fill="#636ef6"/></g></g><path d="m85.333 81h30v30h-30z" fill="#aed5f9"/><path d="m32 155.667h30v30h-30z" fill="#aed5f9"/><g><g><path d="m225.957 491.21-19.323-63.651-17.03-49.524c-.019-.068-.038-.137-.057-.205l-4.911-22.714c-.012-.047-.024-.094-.037-.141l-48.821-160.82h-14.353l-14.759 179.179 14.759 117.876z" fill="#7bc5b0"/><path d="m121.426 491.21v-297.056h-14.354l-27.193 89.576.746 18.124-9.876 11.953-38.81 127.847 4.111 17.925-14.316 15.691-4.839 15.94z" fill="#9edba7"/></g><g><path d="m184.62 355.044-63.194-43.026-10 17.244 10 19.049 74.817 50.939-74.817 19.309-5 15.809 5 15.178 85.208-21.987z" fill="#e28d69"/><g fill="#ebb16d"><path d="m31.939 441.654-10.205 33.616 99.692-25.724v-30.987z"/><path d="m70.749 313.807 50.677 34.504v-36.293l-41.547-28.288z"/></g></g></g><path d="m0 482h512v30h-512z" fill="#dcdcdc"/></g></svg>