<svg id="Capa_1" enable-background="new 0 0 512 512" height="512" viewBox="0 0 512 512" width="512" xmlns="http://www.w3.org/2000/svg"><g><g><path d="m349.187 423.414h-14.273l-10 46.923 10 41.663h14.273z" fill="#e28d69"/><path d="m319.187 423.414h15.726v88.586h-15.726z" fill="#ebb16d"/></g><path d="m428.833 145h42.667v30h-42.667z" fill="#e28d69"/><path d="m253.833 423.414h30v88.586h-30z" fill="#ebb16d"/><g><g><path d="m334.833 224.688-5 115.65 5 93.357c57.166-19.773 98.334-74.135 98.334-137.939v-46.09z" fill="#deedf5"/><path d="m213.372 195.731-43.042 95.648-129.83 220.288h95.598l74.667-70h76.492c16.651 0 32.657-2.811 47.576-7.971v-209.008z" fill="#f9f9f9"/></g><g><path d="m417.167 70.333h-82.334l-7 84.009 7 93.346c8.192 1.278 16.133 1.979 23.634 1.979h74.7v-163.334c0-8.822-7.178-16-16-16z" fill="#bfe0f5"/><path d="m213.372 195.731c31.418 23.708 79.754 45.453 121.461 51.957v-177.355h-75.032l-34.25 98.333z" fill="#deedf5"/></g></g><g><path d="m250.182 271.208h-11.557c-85.72 0-155.458 69.738-155.458 155.458v15h82.333l37.167-3.666 16.759 3.667h30.756c46.996 0 85.229-38.234 85.229-85.229s-38.233-85.23-85.229-85.23z" fill="#bfe0f5"/><path d="m163.409 441.667h56.017c16.796-18.06 27.087-42.248 27.087-68.798h-30c.001 32.991-22.584 60.802-53.104 68.798z" fill="#7e9ff0"/></g><path d="m334.833 145h30v30h-30z" fill="#113847"/><g><g><path d="m433.167 85.333c0-47.053-38.28-85.333-85.333-85.333h-12.423l-10 49 10 51.333h97.756z" fill="#a51f53"/><path d="m303.635 0c-68.632 0-124.468 55.836-124.468 124.468v44.198h46.384l30.75-68.333h79.11v-100.333z" fill="#bf1c59"/></g><ellipse cx="147.43" cy="164.004" fill="#e6e6e6" rx="52.333" ry="52.333" transform="matrix(.901 -.433 .433 .901 -56.494 80.052)"/></g></g></svg>