<svg id="Capa_1" enable-background="new 0 0 511.501 511.501" height="512" viewBox="0 0 511.501 511.501" width="512" xmlns="http://www.w3.org/2000/svg"><g><g><path d="m131.917 187.667h30v30h-30z" fill="#bfe0f5"/><path d="m91.25 59.667h30v30h-30z" fill="#bfe0f5"/><path d="m413.583 401h30v30h-30z" fill="#aed5f9"/><path d="m357.917 315.667h30v30h-30z" fill="#aed5f9"/><path d="m67.917 262.333h30v30h-30z" fill="#bfe0f5"/></g><g><path d="m306.882 378.39v-203.39h74.722l-28.023-79-91.223 14.912-10 106.755 10 160.723z" fill="#e28d69"/><path d="m262.358 378.39v-267.478l-49.476 8.087v259.391z" fill="#ebb16d"/></g><g><path d="m385.242 22.062c-11.771-2.613-21.397-6.244-30.707-9.755-16.042-6.051-32.629-12.307-57.369-12.307-12.707 0-24.408 1.865-34.809 5.455l-10 69.212 10 44.333h78.56v75.109c0 26.224 21.335 47.559 47.559 47.559 26.225 0 47.56-21.335 47.56-47.559v-109.578c-.001-30.14-20.887-55.828-50.794-62.469z" fill="#bfe0f5"/><path d="m237.37 19.56c-16.02 13.851-24.488 34.059-24.488 58.44v40.999h49.476v-113.544c-9.502 3.279-17.921 7.996-24.988 14.105z" fill="#deedf5"/></g><g><path d="m267.036 472.154c22.322-22.322 36.263-50.538 39.254-79.45 3.111-30.076-5.87-57.334-25.289-76.753-5.602-5.602-11.858-10.329-18.644-14.154l-10 87.414 10 87.414c1.586-1.452 3.148-2.94 4.679-4.471z" fill="#d86063"/><path d="m204.247 290.662c-28.912 2.991-57.128 16.931-79.45 39.253s-36.263 50.538-39.254 79.451c-3.11 30.076 5.87 57.334 25.29 76.753 31.956 31.955 83.918 31.369 121.937 11.385 10.716-5.633 20.662-12.705 29.587-20.879v-174.828c-16.736-9.435-36.706-13.349-58.11-11.135z" fill="#e28d69"/><path d="m176.216 452v-30c2.287 0 14.346-.65 27.181-13.485 7.527-7.527 12.525-16.899 13.37-25.071l29.841 3.086c-1.554 15.028-9.572 30.773-21.998 43.199-20.665 20.665-42.266 22.271-48.394 22.271z" fill="#ebb16d"/></g></g></svg>