<svg id="Capa_1" enable-background="new 0 0 512 512" height="512" viewBox="0 0 512 512" width="512" xmlns="http://www.w3.org/2000/svg"><g><g><path d="m368.945 91.667h-112.945l-6.584 210.167 6.584 210.166h112.945c42.078 0 76.311-34.233 76.311-76.311v-50.047l-10.001-83.809 10.001-83.809v-50.047c0-42.077-34.233-76.31-76.311-76.31z" fill="#bfe0f5"/><path d="m143.055 91.667c-42.078 0-76.311 34.233-76.311 76.311v50.047l10.001 83.809-10.001 83.809v50.047c0 42.078 34.233 76.311 76.311 76.311h112.945v-420.334z" fill="#deedf5"/></g><g><path d="m306.157 301.061c-19.342 0-36.965 7.474-50.157 19.673-14.617 13.518-23.791 32.841-23.791 54.274s9.174 40.756 23.791 54.274c13.191 12.2 30.814 19.674 50.157 19.674 40.775 0 73.947-33.173 73.947-73.948s-33.172-73.947-73.947-73.947z" fill="#d86063"/><g><path d="m288.996 219.031c0-25.639-13.121-48.265-32.996-61.535l-10 55.015 10 68.055c19.875-13.271 32.996-35.896 32.996-61.535z" fill="#eab065"/><path d="m141.101 219.031c0 40.775 33.172 73.947 73.947 73.947 15.136 0 29.219-4.578 40.952-12.412v-123.07c-11.733-7.834-25.816-12.413-40.952-12.413-40.775 0-73.947 33.173-73.947 73.948z" fill="#ffc869"/></g><g><path d="m272.958 416.72c0-17.867-6.371-34.273-16.958-47.07l-10 47.07 10 47.07c10.588-12.797 16.958-29.203 16.958-47.07z" fill="#e28d69"/><path d="m199.011 342.772c-40.775 0-73.947 33.172-73.947 73.947s33.172 73.947 73.947 73.947c22.908 0 43.415-10.471 56.989-26.877v-94.14c-13.574-16.406-34.081-26.877-56.989-26.877z" fill="#ebb16d"/></g></g><g><g><path d="m393.667 96.001v-96.001h-77.621l-8.046 49.667 8.046 46.334z" fill="#bf1c59"/><path d="m195.954 96.001 10.001-48.001-10.001-48h-77.62v96.001z" fill="#d86063"/></g><g><path d="m256 0-6.584 51.033 6.584 44.967h60.046v-96z" fill="#d86063"/><path d="m195.954 0h60.046v96h-60.046z" fill="#e28d69"/></g></g><g><g><path d="m445.256 218.025h-189.256l-10.667 80.641 10.667 86.976h189.256z" fill="#cfcacc"/><path d="m66.744 218.025h189.256v167.617h-189.256z" fill="#dcdcdc"/></g><g><path d="m353.431 316.833h-97.431l-5.154-17.661 5.154-12.339h97.431z" fill="#f7f0eb"/><path d="m161.43 286.833h94.57v30h-94.57z" fill="#f9f9f9"/></g></g></g></svg>