<svg id="Capa_1" enable-background="new 0 0 512 512" height="512" viewBox="0 0 512 512" width="512" xmlns="http://www.w3.org/2000/svg"><g><g><path d="m57.667 230.338c-31.813.09-57.667 25.994-57.667 57.827s25.854 57.738 57.667 57.828z" fill="#ffc785"/><path d="m454.333 230.338c31.812.09 57.667 25.995 57.667 57.828s-25.854 57.738-57.667 57.828z" fill="#ebb16d"/></g><g><path d="m256 187.333-10.667 175.333 10.667 149.334h75.993c69.871 0 126.714-56.844 126.714-126.705l.118-178.295z" fill="#bfe0f5"/><path d="m53.174 207 .118 178.286c.001 69.87 56.844 126.714 126.715 126.714h75.993v-324.667z" fill="#deedf5"/></g><g><path d="m256 177-10.667 89.667 10.667 67.777h.059c17.348 0 34.319 5.935 47.789 16.714 18.579 10.894 27.081 15.926 39.495 15.926 11.099 0 22.233-3.326 31.946-10.027 15.208-10.494 24.289-27.789 24.289-46.267v-133.79z" fill="#ebb16d"/><path d="m112.434 177-.012 133.661c-.002 18.586 9.159 35.941 24.509 46.425 20.734 14.158 50.402 11.748 72.349-6.504 12.997-10.406 30.07-16.138 46.719-16.138v-157.444z" fill="#ffc785"/></g><g><path d="m280.192 376.489c-4.94 8.54-14.126 13.844-23.975 13.844-.073 0-.144-.007-.217-.007l-10.667 15.007 10.667 14.997c.073.001.145.004.217.004 20.521 0 39.658-11.044 49.942-28.822z" fill="#f7f0eb"/><path d="m232.243 376.49-25.969 15.021c10.248 17.715 29.286 28.741 49.726 28.818v-30.003c-9.766-.077-18.854-5.36-23.757-13.836z" fill="#fff"/></g><g><ellipse cx="416" cy="96" fill="#bfe0f5" rx="68.333" ry="68.333" transform="matrix(.707 -.707 .707 .707 53.961 322.274)"/><g><path d="m431.647 125.334c-8.479-32.818-28.211-62.596-56.7-85.085-32.879-25.955-75.123-40.249-118.947-40.249l-10.667 85.334 5.845 40z" fill="#a51f53"/><path d="m256 125.334v-125.334c-43.825 0-86.067 14.294-118.948 40.249-28.489 22.488-48.221 52.266-56.7 85.085z" fill="#bf1c59"/></g><g><path d="m458.825 159.333c0-31.43-25.57-57-57-57h-145.825l-10.667 57.667 10.667 47h202.825z" fill="#deedf5"/><path d="m110.174 102.334c-31.43 0-57 25.57-57 57v47.666h202.826v-104.666z" fill="#f2f8fb"/></g></g><g><path d="m172.333 266.667h30v30h-30z" fill="#304b5e"/><path d="m309.667 266.667h30v30h-30z" fill="#113847"/></g></g></svg>