<svg id="Capa_1" enable-background="new 0 0 512 512" height="512" viewBox="0 0 512 512" width="512" xmlns="http://www.w3.org/2000/svg"><g><g><path d="m455.775 282.333c2.624-9.499 5.863-24.108 6.58-40.278 1.219-27.507-5.18-50.105-18.665-66.722h-187.406v107z" fill="#bf1c59"/><path d="m56.225 282.333h200.059v-107h-187.974c-13.485 16.617-19.884 39.215-18.665 66.722.718 16.171 3.957 30.78 6.58 40.278z" fill="#d86063"/></g><path d="m112.333 384.725h-26.603c-32.016 0-58.063-26.047-58.063-58.063v-72.662l84.667 19.909v110.816z" fill="#e28d69"/><path d="m399.667 273.909 84.666-19.909v72.662c0 32.016-26.047 58.063-58.063 58.063h-26.604v-110.816z" fill="#e28d69"/><g><path d="m410.693 265.593c-48.708-16.128-86.603-38.618-114.82-68.259h-39.588l-10.001 179.156 10.001 135.508c90.832-.119 164.694-74.05 164.694-164.909v-78.089z" fill="#ebb16d"/><path d="m216.183 197.333c-28.191 29.629-66.056 52.12-114.728 68.262l-10.274 3.407-.027 78.085c-.001 90.934 73.979 164.913 164.912 164.913.073 0 .146-.002.219-.003v-314.664z" fill="#ffc785"/></g><g><path d="m373.333 164.333c-37.678 0-68.333-30.654-68.333-68.333s30.654-68.333 68.333-68.333 68.333 30.654 68.333 68.333-30.654 68.333-68.333 68.333z" fill="#aed5f9"/><g><path d="m394.685 122.834-58.93-81.95c-18.354-25.523-48.045-40.788-79.471-40.88l-10.951 63.996 10.951 58.833h138.401z" fill="#60b09e"/><path d="m176.245 40.883-58.931 81.95h138.969v-122.829c-.093 0-.188-.004-.283-.004-31.531 0-61.346 15.284-79.755 40.883z" fill="#7bc5b0"/></g><g><path d="m458.826 159.333c0-31.43-25.57-57-57-57h-145.542l-10.951 57.667 10.951 47h202.541v-47.667z" fill="#bfe0f5"/><path d="m110.175 102.334c-31.43 0-57 25.57-57 57v47.666h203.11v-104.666z" fill="#deedf5"/></g></g><g><g><path d="m306.227 380.845-25.969-15.021c-4.939 8.539-14.125 13.843-23.974 13.844l-5 13.675 5 16.325c20.522-.001 39.659-11.045 49.943-28.823z" fill="#f7f0eb"/><path d="m256.284 379.667c-9.848 0-19.034-5.305-23.974-13.844l-25.968 15.022c10.284 17.778 29.421 28.822 49.942 28.822h.001z" fill="#fff"/></g><path d="m315.951 311.333h30v30h-30z" fill="#113847"/><path d="m166.617 311.333h30v30h-30z" fill="#304b5e"/></g></g></svg>