<svg id="Capa_1" enable-background="new 0 0 512 512" height="512" viewBox="0 0 512 512" width="512" xmlns="http://www.w3.org/2000/svg"><g><path d="m195.512 0c-.003 0-.005 0-.008 0h.032c-.008 0-.016 0-.024 0z" fill="#deedf5"/><g><g><path d="m41.484 281.836v43.498c0 52.335-8.903 90.829-16.373 113.905-8.082 24.971-18.748 41.521-18.795 41.594v31.167h56.843l192.824-21.333v-266.667h-213.333z" fill="#ebb16d"/><path d="m486.855 439.239c-7.47-23.077-16.373-61.571-16.373-113.905l.111-42.486-1.277-58.848h-213.333l-10.667 181.333 10.667 85.333 192.824 21.334h56.842l.034-31.114c.001 0-10.746-16.676-18.828-41.647z" fill="#e28d69"/></g><g><path d="m448.807 512c-16.443-5.9-83.283-31.121-119.984-63.679-37.923-33.643-57.841-77.638-57.841-132.321v-101.667h-15l-10 197.667 10 100z" fill="#d86063"/><path d="m240.983 316c0 54.683-19.918 98.679-57.841 132.321-36.7 32.558-103.54 57.779-119.984 63.679h192.824v-297.667h-15v101.667z" fill="#e28d69"/></g></g><g><g><path d="m385.339 101.666h-129.356l-10 62.266 10 68.237 214.498-19.81z" fill="#a51f53"/><path d="m41.483 212.359 214.5 19.81v-130.503h-129.357z" fill="#bf1c59"/></g><g><path d="m255.983 212.168-5.167 12.165 5.16 9.167.007 7.306c0 30.253 24.525 54.778 54.778 54.778 33.48 0 60.848-26.113 62.881-59.081l.134.184c0 32.528 26.369 58.897 58.897 58.897 14.395 0 27.578-5.171 37.81-13.749v-69.668z" fill="#8a1a45"/><path d="m41.483 212.168v69.668c10.231 8.577 23.414 13.749 37.81 13.749 31.216 0 56.745-24.29 58.754-54.998l.143.221c0 30.253 24.525 54.778 54.778 54.778 34.802 0 63.015-28.213 63.015-63.015v-20.401z" fill="#a51f53"/></g></g><g><path d="m393.922 106.635-.004-.306c-.789-35.019-10.155-81.575-82.07-81.575-24.615 0-55.365-13.146-55.365-13.146l-10 63.08 10 55.312h42.433c1.333 25.04 22.125 45 47.491 45 26.225 0 47.56-21.335 47.56-47.591z" fill="#bfe0f5"/><path d="m105.728 90.284v39.716h150.755v-118.392c-15.486-5.826-33.536-11.605-60.447-11.608h-.032c-25.543.002-48.753 9.457-65.353 26.623-16.072 16.618-24.923 39.227-24.923 63.661z" fill="#deedf5"/></g></g></svg>