<svg id="Capa_1" enable-background="new 0 0 512 512" height="512" viewBox="0 0 512 512" width="512" xmlns="http://www.w3.org/2000/svg"><g><g><g><path d="m301.124 273.041h-45.12l-10.001 68.646 10.001 68.646h45.12z" fill="#e28d69"/><path d="m210.877 273.041h45.127v137.292h-45.127z" fill="#ebb16d"/></g><g><path d="m417.628 173.696c0-40.62-33.047-73.667-73.667-73.667h-87.957l-10 100.479 10 85.312h161.624z" fill="#d86063"/><path d="m158.522 100.029 66.657 185.792h30.825v-185.792z" fill="#e28d69"/><path d="m159.776 100.029c-36.063 0-65.403 29.34-65.403 65.403v120.388h130.807v-120.387c-.001-36.064-29.341-65.404-65.404-65.404z" fill="#d86063"/></g></g><path d="m119.373 260.821v-95.388c0-22.278 18.125-40.403 40.403-40.403s40.403 18.125 40.403 40.403v95.388z" fill="#bf1c59"/><path d="m202.166 0c-.003 0-.005 0-.008 0h.032c-.008 0-.016 0-.024 0z" fill="#deedf5"/><g><path d="m305 120.787v49.32c0 26.224 21.335 47.559 47.56 47.559s47.56-21.335 47.56-47.569l-.044-63.44-.004-.328c-.789-35.019-10.155-81.575-82.069-81.575-21.14 0-34.322-5.07-49.587-10.941-3.972-1.527-8.071-3.102-12.411-4.618l-10 55.805 10 55.787z" fill="#bfe0f5"/><path d="m111.881 90.284v30.503h144.122v-111.592c-14.05-4.908-30.648-9.192-53.813-9.195h-.032c-25.544.002-48.753 9.457-65.355 26.623-16.071 16.618-24.922 39.227-24.922 63.661z" fill="#deedf5"/></g><g><path d="m410.793 512-.008-15.007c-.024-49.758-40.525-90.239-90.283-90.239-20.277 0-45.663-4.723-64.502-12.229l-6.818 64.628 6.818 52.847z" fill="#bfe0f5"/><path d="m191.499 382c-49.783 0-90.284 40.501-90.284 90.284v39.716h154.785v-117.475c-23.349-9.358-42.385-12.525-64.501-12.525z" fill="#deedf5"/></g></g></svg>