<svg id="Capa_1" enable-background="new 0 0 512 512" height="512" viewBox="0 0 512 512" width="512" xmlns="http://www.w3.org/2000/svg"><g><path d="m113 437.333h30v74.666h-30z" fill="#aba4ab"/><path d="m369 437.333h30v74.666h-30z" fill="#aba4ab"/><g><path d="m178.176 337h-107.831v104.667h107.831l18.418-52.334z" fill="#dcdcdc"/><path d="m439.432 337h-105.608l-10 45.901 10 58.766h105.608z" fill="#cfcacc"/><path d="m333.824 441.667v-104.667h-77.824l-10 52.333 10 52.334z" fill="#bab4ba"/><path d="m178.176 337h77.824v104.666h-77.824z" fill="#cfcacc"/></g><path d="m429.154 213.333h30v298.667h-30z" fill="#304b5e"/><path d="m52.846 213.333h30v298.667h-30z" fill="#3f6279"/><g><g><path d="m472.105 203.921c0-33.155 0-70.733-22.895-102.305l-4.251-5.863h-188.959l-10 63.247 10 43.667 69.406 36.333h146.699z" fill="#7e9ff0"/><path d="m67.041 95.753-4.251 5.863c-22.895 31.572-22.895 69.15-22.895 102.305v35.079h146.699l69.406-36.333v-106.914z" fill="#a8baff"/></g><g><path d="m325.406 176.097h-69.406l-10 35.236 10 27.667h69.406z" fill="#bfe0f5"/><path d="m186.594 176.097h69.406v62.903h-69.406z" fill="#deedf5"/></g></g><g><path d="m459.111 101.601c-.005-26.696-8.628-46.815-25.628-59.799-15.02-11.472-36.155-17.048-64.612-17.048-1.137 0-4.14.035-8.492.088-21.563.259-86.996 1.047-104.378-.914l-10.001 40.972 10 52.747h108.036v10.353c0 26.224 21.335 47.559 47.56 47.559 26.224 0 47.559-21.335 47.559-47.584z" fill="#bfe0f5"/><path d="m255.786 23.904c-13.083-1.527-24.584-3.237-43.371-10.054-21.624-7.848-40.456-13.85-69.285-13.85-49.783 0-90.284 40.501-90.284 90.284v27.363h203.154v-93.72c-.07-.007-.146-.015-.214-.023z" fill="#deedf5"/></g></g></svg>