<svg id="Capa_1" enable-background="new 0 0 512 512" height="512" viewBox="0 0 512 512" width="512" xmlns="http://www.w3.org/2000/svg"><g><g><path d="m243.001 138.665-10 224.001 10 149.333h119.759c9.785 0 17.688-7.661 17.991-17.441l11.057-355.894h-148.807z" fill="#7bc5b0"/><path d="m94.195 138.665 4.836 155.668 100.97 217.667h43v-373.335z" fill="#9edba7"/></g><g><path d="m402.001 149.162c0-31.703-25.792-57.496-57.495-57.496h-101.505l-10 57.667 10 57.667h159z" fill="#5c9296"/><path d="m135.494 91.666c-31.703 0-57.495 25.793-57.495 57.496v57.838h165.002v-115.334z" fill="#60b09e"/></g><g><path d="m425.528 106.659-.004-.33c-1.185-52.604-33.232-81.575-90.236-81.575-20.278 0-40.112-3.806-58.949-11.312-10.859-4.327-21.997-7.609-33.338-9.852l-10 59.235 10 32.928h87.452v95.688c0 26.224 21.335 47.559 47.559 47.559s47.559-21.335 47.559-47.567z" fill="#bfe0f5"/><path d="m206.285 0c-49.783 0-90.284 33.5-90.284 95.753h127v-92.163c-12.04-2.381-24.307-3.59-36.716-3.59z" fill="#deedf5"/></g><g><ellipse cx="365.668" cy="443.667" fill="#5c9296" rx="68.334" ry="68.333" transform="matrix(.999 -.042 .042 .999 -18.337 15.773)"/><ellipse cx="365.668" cy="443.667" fill="#304b5e" rx="34" ry="34" transform="matrix(.964 -.267 .267 .964 -105.277 113.872)"/></g><path d="m105.793 512h94.208v-217.667h-100.97z" fill="#7bc5b0"/></g></svg>