<svg id="Capa_1" enable-background="new 0 0 512 512" height="512" viewBox="0 0 512 512" width="512" xmlns="http://www.w3.org/2000/svg"><g><g><path d="m356.333 512v-99h-100.333l-10.667 56.333 10.667 42.667z" fill="#828282"/><path d="m155.667 413h100.333v99h-100.333z" fill="#9b9b9b"/></g><g><path d="m346.353 0c-38.315 0-71.914 20.562-90.353 51.228l-10.667 23.44 10.667 47.332h15v-16.647c0-41.55 33.803-75.353 75.353-75.353s75.353 33.803 75.353 75.353v101.647h30v-101.647c-.001-58.092-47.261-105.353-105.353-105.353z" fill="#bfe0f5"/><path d="m165.647 0c-58.092 0-105.353 47.261-105.353 105.353v101.647h30v-101.647c0-41.55 33.803-75.353 75.353-75.353s75.353 33.803 75.353 75.353v16.647h15v-70.773c-18.439-30.665-52.039-51.227-90.353-51.227z" fill="#deedf5"/></g><g><path d="m256 320-10.667 53.333 10.667 51.334h109.931c38.82 0 70.402-31.582 70.402-70.402v-34.265z" fill="#e28d69"/><path d="m75.667 320v34.264c0 38.82 31.583 70.402 70.402 70.402h109.931v-104.666z" fill="#ebb16d"/></g><g><path d="m324.333 279v-75h-68.333l-10.667 41.333 10.667 33.667z" fill="#828282"/><path d="m187.667 204h68.333v75h-68.333z" fill="#9b9b9b"/></g><g><path d="m459.111 336.268c-.005-26.696-8.628-46.816-25.629-59.799-15.02-11.472-36.154-17.048-64.611-17.048-1.137 0-53.037 4.58-96.023 1.141-4.273-.342-10.181-1.017-16.847-2.004l-10.667 40.11 10.666 53.647h108.035v10.352c0 26.224 21.335 47.559 47.56 47.559s47.56-21.335 47.56-47.584z" fill="#bfe0f5"/><path d="m212.416 248.517c-21.624-7.848-40.457-13.851-69.286-13.851-49.783 0-90.284 40.501-90.284 90.284v27.364h203.154v-93.757c-13.819-2.046-30.913-5.442-43.584-10.04z" fill="#deedf5"/></g><g><path d="m313.632 211.333c38.82 0 70.402-31.582 70.402-70.402v-34.265h-128.034l-10.667 42.666 10.667 62.001z" fill="#e28d69"/><path d="m127.966 140.931c0 38.82 31.582 70.402 70.402 70.402h57.632v-104.667h-128.034z" fill="#ebb16d"/></g></g></svg>