<svg id="Capa_1" enable-background="new 0 0 512 512" height="512" viewBox="0 0 512 512" width="512" xmlns="http://www.w3.org/2000/svg"><g><g><g><path d="m376.442 0v50.342h-24.442l-10.001 17.321 10.001 12.679h24.442v54.984h30v-135.326z" fill="#d86063"/><path d="m327.558 50.342v-50.342h-30v135.326h30v-54.984h24.442v-30z" fill="#e28d69"/></g><g><path d="m473.667 489.091v-361.091h-121.667l-10.001 197.332 9.48 163.759z" fill="#6c7bf0"/><path d="m230.333 128h121.667v361.091h-121.667z" fill="#7e9ff0"/></g><path d="m294.333 202.667h30v53.333h-30z" fill="#636ef6"/><path d="m379.667 202.667h30v53.333h-30z" fill="#4149a3"/><path d="m294.333 309.333h30v53.333h-30z" fill="#636ef6"/><path d="m379.667 309.333h30v53.333h-30z" fill="#4149a3"/><g><path d="m367 489.091v-73.091h-15l-4 37.333 3.831 35.758z" fill="#5761d9"/><path d="m337 416h15v73.091h-15z" fill="#636ef6"/></g></g><g><g><path d="m247.914 489-18.706-61.62-17.03-49.524c-.019-.068-.038-.136-.057-.204l-4.911-22.715c-.012-.047-.024-.095-.037-.142l-48.882-160.819h-14.291l-10.001 177.191 10.001 117.833z" fill="#7bc5b0"/><path d="m40.086 489h103.914v-295.024h-14.354l-27.192 89.576 5.507 16.8-14.638 13.277-38.81 127.846 4.781 17.192-14.986 16.424z" fill="#9edba7"/></g><g><path d="m207.195 354.866-63.195-43.027-4.177 13.348 4.177 22.946 74.817 50.939-74.817 19.309-3.081 15.279 3.081 15.707 85.208-21.986z" fill="#e28d69"/><g fill="#ebb16d"><path d="m54.513 441.475-10.205 33.617 99.692-25.725v-30.986z"/><path d="m93.323 313.629 50.677 34.504v-36.294l-41.546-28.287z"/></g></g></g><path d="m96 81h30v30h-30z" fill="#aed5f9"/><path d="m42.667 155.667h30v30h-30z" fill="#aed5f9"/><path d="m0 482h512v30h-512z" fill="#dcdcdc"/></g></svg>