<svg id="Capa_1" enable-background="new 0 0 512 512" height="512" viewBox="0 0 512 512" width="512" xmlns="http://www.w3.org/2000/svg"><g><g><path d="m409.057 318.707-27.452-93.336-130.217-9.001-10 54.838 10 56.5z" fill="#deedf5"/><path d="m102.943 318.707 148.445 9.001v-111.338l-120.993 9.001z" fill="#f9f9f9"/></g><g><path d="m442.084 431-33.027-112.293h-157.669l-10 49.374 8.493 62.919z" fill="#e28d69"/><path d="m251.388 431v-112.293h-148.445l-33.027 112.293z" fill="#ebb16d"/></g><g><path d="m381.605 225.371-50.912-173.102h-79.305l-10 122.731 10 50.371z" fill="#e28d69"/><path d="m130.395 225.371h120.993v-173.102h-70.081z" fill="#ebb16d"/></g><path d="m462.118 431v-37.785c0-30.316-24.664-54.979-54.979-54.979-13.711 0-27.121 2.573-39.856 7.648-9.214 3.671-18.914 5.532-28.831 5.532-30.316 0-54.979 24.663-54.979 54.979v24.605z" fill="#bfe0f5"/><g><path d="m482.721 471.952c0-32.85-26.726-59.576-59.577-59.576h-171.756l-10 56.366 10 43.259h231.333z" fill="#d86063"/><path d="m88.855 412.375c-32.85 0-59.576 26.726-59.576 59.576v40.049h222.109v-99.625z" fill="#e28d69"/></g><g><path d="m163.027 57.133v57.402h88.352l10.004-50.079-9.995-60.014c-10.128-2.951-20.592-4.442-31.227-4.442-31.504 0-57.134 25.63-57.134 57.133z" fill="#deedf5"/><path d="m300.026 191.729c26.824 0 48.647-21.823 48.647-48.647v-72.252c0-31.503-25.63-57.133-57.133-57.133h-.827c-9.691 0-19.577-1.967-29.383-5.847-3.273-1.295-6.589-2.431-9.942-3.408v138.999c.195 26.659 21.934 48.288 48.638 48.288z" fill="#bfe0f5"/></g></g></svg>