<svg id="Capa_1" enable-background="new 0 0 512 512" height="512" viewBox="0 0 512 512" width="512" xmlns="http://www.w3.org/2000/svg"><g><g><path d="m457.188 396.024v30c13.682 0 24.813 11.131 24.813 24.813s-11.131 24.813-24.813 24.813h-90.753v-76.17h-30v76.169h-125.558l-10.001 15.382 10.001 14.618h246.311c30.224 0 54.813-24.589 54.813-54.813-.001-30.223-24.59-54.812-54.813-54.812z" fill="#cfcacc"/><path d="m112.542 475.649v-76.169h-30v76.169h-82.542v30h210.877v-30z" fill="#dcdcdc"/></g><path d="m438.822 285.408-34.919-17.459-15.403-2.949-11.469-10.487-12.598-6.299c-9.944-4.972-18.993-11.43-26.866-19.116l-11.276-8.348-7.112-15.55c-4.596-8.133-8.089-16.795-10.414-25.769l-7.348-16.932 3.932-11.46v-40.635l-4.682-14.999 4.682-15.001v-74.053l-94.182.015-8.5 205.301 8.5 167.75.003-.072 19.38 14.436.222.162c34.097 24.44 74.293 37.358 116.243 37.358h146.692v-57.086c0-37.852-21.03-71.88-54.885-88.807z" fill="#e28d69"/><path d="m211.167 6.366c-28.825.187-52.896 4.137-72.589 9.683 32.423 94.358 17.306 137.729-4.243 181.684-17.335 35.357-26.001 35.267-28.897 92.6-1.723 34.123 4.229 62.171 27.378 99.084l78.35-10.001v-373.05z" fill="#ebb16d"/><path d="m138.578 16.049c-54.411 14.951-75.133 42.078-75.133 42.078v113.437c-5.122 12.608-23.545 62.023-23.545 120.509v87.343l97.767 8.917c-22.667-35.333-28.054-79.272-23.338-113.111 4.009-28.761 17.576-54.942 30.696-80.263 3.59-6.929 6.981-13.473 10.119-19.965 21.304-44.075 14.763-106.259-16.566-158.945z" fill="#d86063"/><path d="m39.9 379.417h171.267v51.884h-171.267z" fill="#bf1c59"/><g fill="#a51f53"><path d="m261.688 80.406h43.661v30h-43.661z"/><path d="m261.688 181.041h47.09v-1.619c-2.258-8.712-3.429-17.714-3.429-26.811v-1.571h-43.661z"/><path d="m285.561 238.678 21.213 21.213 30.795-30.794c-9.749-11.493-18.39-23.896-18.39-23.896z"/><path d="m387.694 305.376 16.212-37.426-26.872-13.436-16.867 38.937z"/></g></g></svg>