<svg id="Capa_1" enable-background="new 0 0 512 512" height="512" viewBox="0 0 512 512" width="512" xmlns="http://www.w3.org/2000/svg"><g><path d="m149.859 139.342h78.609v338.71h-78.609z" fill="#9ccefd"/><g><path d="m417.787 105.393c-15.581 0-29.649 6.57-39.607 17.073-9.958-10.503-24.025-17.073-39.607-17.073s-29.649 6.57-39.607 17.073c-9.958-10.503-24.026-17.073-39.607-17.073-1.129 0-2.247.045-3.359.113l-20 203.048 20 203.048h-3.112c2.124.252 4.281.397 6.472.397 15.582 0 29.648-6.57 39.606-17.073 9.958 10.504 24.025 17.074 39.607 17.074 15.581 0 29.648-6.57 39.607-17.073 9.958 10.503 24.025 17.073 39.607 17.073 30.11 0 54.607-24.497 54.607-54.607v-297.393c-.001-30.11-24.497-54.607-54.607-54.607z" fill="#bfe0f5"/><path d="m256 105.507c-28.551 1.742-51.248 25.512-51.248 54.493v297.393c0 27.919 21.066 50.997 48.135 54.21h3.113z" fill="#deedf5"/></g><g><path d="m403.728 28.048c-4.68-8.29-8.061-14.279-8.061-28.048h-30c0 21.653 6.619 33.377 11.939 42.797 4.68 8.289 8.061 14.279 8.061 28.048h30c0-21.653-6.62-33.377-11.939-42.797z" fill="#e28d69"/><path d="m328 0h-30c0 21.653 6.619 33.377 11.938 42.797 4.68 8.289 8.062 14.279 8.062 28.048h30c0-21.654-6.619-33.377-11.939-42.798-4.68-8.289-8.061-14.278-8.061-28.047z" fill="#e28d69"/><g><path d="m280.333 70.845c0-21.654-6.619-33.377-11.939-42.798-4.68-8.29-8.061-14.279-8.061-28.048h-4.333l-10 29.947 10 40.899z" fill="#e28d69"/><path d="m250.333 70.845h5.667v-70.845h-25.667c0 21.653 6.619 33.377 11.939 42.797 4.68 8.29 8.061 14.279 8.061 28.048z" fill="#ebb16d"/></g></g><g><path d="m39.607 105.393v68.334l10 61.747-10 56.859v219.667h132.333v-219.667l-10-59.303 10-59.303v-68.334z" fill="#deedf5"/><path d="m39.607 173.727h132.333v118.607h-132.333z" fill="#6c7bf0"/><path d="m68.403 217.572h74.742v30.915h-74.742z" fill="#fffbf5" transform="matrix(-1 0 0 -1 211.547 466.06)"/></g></g></svg>