<svg id="Capa_1" enable-background="new 0 0 512 512" height="512" viewBox="0 0 512 512" width="512" xmlns="http://www.w3.org/2000/svg"><g><g><path d="m356.333 496.333v-115.333h-99.076l-10 57.666 10 57.667z" fill="#e28d69"/><path d="m155.666 381h101.591v115.334h-101.591z" fill="#ebb16d"/></g><g><path d="m485.73 101h-228.473l-10 155 10 155h228.473z" fill="#6c7bf0"/><path d="m26.27 101h230.988v310h-230.988z" fill="#7e9ff0"/></g><g><path d="m442.417 15.667h-185.16l-10 55.179 10 60.155h160.743v17c0 25.916 21.084 47 47 47s47-21.084 47-47v-62.751c0-38.368-31.215-69.583-69.583-69.583z" fill="#bfe0f5"/><path d="m69.583 15.667c-38.368 0-69.583 31.215-69.583 69.583v62.75c0 25.916 21.084 47 47 47s47-21.084 47-47v-17h163.257v-115.333z" fill="#deedf5"/></g><g><path d="m154.33 349.921c-29.98 0-54.371-24.391-54.371-54.371v-52.944c0-29.98 24.391-54.371 54.371-54.371s54.371 24.391 54.371 54.371v52.944c0 29.98-24.391 54.371-54.371 54.371zm0-131.686c-13.438 0-24.371 10.933-24.371 24.371v52.944c0 13.438 10.933 24.371 24.371 24.371 13.439 0 24.371-10.933 24.371-24.371v-52.944c0-13.438-10.933-24.371-24.371-24.371z" fill="#f9f9f9"/><g><g><path d="m393.543 312.164c-6.638 5.199-14.858 7.835-24.43 7.835-28.057 0-50.882-22.826-50.882-50.882 0-28.057 22.826-50.882 50.882-50.882 9.168 0 18.158 2.471 25.999 7.144l15.36-25.77c-12.484-7.441-26.786-11.375-41.359-11.375-20.451 0-39.14 7.645-53.398 20.207-8.494-12.204-22.617-20.207-38.582-20.207-7.101 0-13.834 1.592-19.875 4.423l-10 42.577 10 42.577c6.041 2.831 12.775 4.423 19.875 4.423 4.125 0 8.125-.538 11.939-1.542 5.634 39.134 39.373 69.308 80.041 69.308 16.208 0 31.053-4.916 42.928-14.217zm-133.41-76.929c0-9.374 7.626-17 17-17s17 7.626 17 17-7.626 17-17 17-17-7.626-17-17z" fill="#deedf5"/><path d="m230.133 235.235c0 18.815 11.118 35.075 27.124 42.577v-85.154c-16.007 7.503-27.124 23.762-27.124 42.577z" fill="#f9f9f9"/></g></g></g></g></svg>