<svg id="Capa_1" enable-background="new 0 0 512 512" height="512" viewBox="0 0 512 512" width="512" xmlns="http://www.w3.org/2000/svg"><g><g><path d="m255 110.096h81.667c46.645 0 62.537-38.65 63.19-40.295l-27.88-11.077.063-.154c-.936 2.203-9.874 21.526-35.373 21.526h-81.695l-9.985 16.338z" fill="#aba4ab"/><path d="m82.999 110.096h142.001v63.5h29.972v-93.5h-171.973z" fill="#cfcacc"/></g><path d="m0 207.596h77.667v136.667h-77.667z" fill="#e6e6e6"/><path d="m225.022 143.596h29.95v95.5h-29.95z" fill="#bfe0f5"/><g><path d="m512 264.369-88.664-24.773-168.364-60.004-10 141.243 10 76.761h257.028z" fill="#7bc5b0"/><path d="m164.446 143.596h-79.387c-22.726 51.5-25.393 103.44-25.393 151.339v102.661h195.305v-218.004z" fill="#9edba7"/></g><g><ellipse cx="173.833" cy="385.096" fill="#5c9296" rx="68.333" ry="68.333" transform="matrix(.935 -.354 .354 .935 -125.157 86.564)"/><ellipse cx="173.833" cy="385.096" fill="#3f6279" rx="27.229" ry="27.229" transform="matrix(.987 -.159 .159 .987 -58.96 32.5)"/></g><g><ellipse cx="380.785" cy="385.096" fill="#5c9296" rx="68.333" ry="68.333" transform="matrix(.941 -.338 .338 .941 -107.697 151.256)"/><ellipse cx="380.785" cy="385.096" fill="#3f6279" rx="27.229" ry="27.229" transform="matrix(.987 -.159 .159 .987 -56.412 65.479)"/></g><g><path d="m423.336 239.596-74.667-96h-93.697l-10 49.268 10 46.732z" fill="#bfe0f5"/><path d="m245.333 239.596h9.639v-96h-90.526c2.017 67.577 31.908 96 80.887 96z" fill="#deedf5"/></g></g></svg>