<svg id="Capa_1" enable-background="new 0 0 512 512" height="512" viewBox="0 0 512 512" width="512" xmlns="http://www.w3.org/2000/svg"><g><g><g><path d="m367 213.667v-35.666l-5.167-14.834 5.167-15.166v-148.001h-111l-10 109.118 9.582 104.549z" fill="#e28d69"/><path d="m145 213.667h111v-213.667h-111v87.001l5.333 15.332-5.333 14.668z" fill="#ebb16d"/></g><path d="m239.666 117h-94.666v-30h64.666v-27.666h30z" fill="#e28d69"/><path d="m302.334 213.667v-35.667h64.666v-30h-94.666v65.667z" fill="#d86063"/></g><g><g><path d="m256 224-10 38.333 10 34.29 143 215.377h64v-288z" fill="#e28d69"/><path d="m49 224v288h64l143-217.333v-70.667z" fill="#ebb16d"/></g><g><path d="m256 273-10 134.022 10 104.978h143v-96c0-78.851-64.149-143-143-143z" fill="#bf1c59"/><path d="m113 416v96h143v-239c-78.85 0-143 64.149-143 143z" fill="#d86063"/></g><g><path d="m490.667 239v-30h-234.667l-10 15 10 15z" fill="#cfcacc"/><path d="m21.333 209h234.667v30h-234.667z" fill="#dcdcdc"/></g></g><g><g><path d="m256 512c40.252 0 73-32.748 73-73 0-21.824-11.032-45.301-32.789-69.778-15.327-17.243-30.569-28.741-31.211-29.222l-9-6.75-10 101.712z" fill="#eab065"/><path d="m215.789 369.222c-21.757 24.477-32.789 47.954-32.789 69.778 0 40.252 32.748 73 73 73v-178.75l-8.999 6.75c-.642.481-15.885 11.979-31.212 29.222z" fill="#ffc869"/></g><g><path d="m280.755 424.103c-9.436-10.615-18.819-17.694-19.214-17.99l-5.541-4.155-10 61.159 10 48.375h-6.751c2.203.333 4.457.508 6.751.508 24.78 0 44.94-20.16 44.94-44.94.001-13.436-6.791-27.889-20.185-42.957z" fill="#f7f0eb"/><path d="m256 401.958-5.54 4.155c-.395.296-9.779 7.375-19.214 17.99-13.394 15.068-20.186 29.521-20.186 42.957 0 22.486 16.601 41.165 38.189 44.432h6.751z" fill="#fffbf5"/></g></g></g></svg>