<svg id="Capa_1" enable-background="new 0 0 512 512" height="512" viewBox="0 0 512 512" width="512" xmlns="http://www.w3.org/2000/svg"><g><g><path d="m252.845 201.986-6.844 146.734 9.999 163.28h115.206l31.532-310.014z" fill="#bfe0f5"/><path d="m109.262 201.986 31.532 310.014h115.206v-310.014z" fill="#deedf5"/></g><g><path d="m187.484 262.333h-93.194l16.621 163.403h82.987l35.054-81.702z" fill="#ebb16d"/><path d="m324.516 262.333-23.512 90.21 17.099 73.193h82.986l16.621-163.403z" fill="#bf1c59"/><path d="m318.103 425.736 6.413-163.403h-68.516l-9.999 81.701 9.999 81.702z" fill="#d86063"/><path d="m193.898 425.736h62.102v-163.403h-68.516z" fill="#e28d69"/></g><g><path d="m425.987 217.667v-56.327c0-32.536-26.471-59.006-59.007-59.006h-110.98l-10 57.667 10 57.667h169.987z" fill="#6c7bf0"/><path d="m86.013 161.34v56.327h169.987v-115.334h-110.98c-32.537 0-59.007 26.471-59.007 59.007z" fill="#7e9ff0"/></g><g><path d="m311 70.845h30c0-21.653-6.619-33.377-11.939-42.797-4.679-8.29-8.061-14.279-8.061-28.048h-30c0 21.653 6.619 33.377 11.939 42.798 4.679 8.289 8.061 14.278 8.061 28.047z" fill="#e28d69"/><path d="m258.333 70.845h15c0-21.653-6.619-33.377-11.939-42.797-2.136-3.785-3.997-7.096-5.394-10.881l-6 34.046 6 19.632z" fill="#e28d69"/><g fill="#ebb16d"><path d="m223.333 0c0 21.653 6.619 33.377 11.939 42.798 4.68 8.29 8.061 14.278 8.061 28.048h12.667v-53.679c-1.663-4.505-2.667-9.684-2.667-17.167z"/><path d="m175.667 70.845h30c0-21.653-6.619-33.377-11.939-42.797-4.68-8.29-8.061-14.279-8.061-28.048h-30c0 21.653 6.619 33.377 11.938 42.798 4.68 8.289 8.062 14.278 8.062 28.047z"/></g></g></g></svg>