<svg id="visual" viewBox="0 0 900 600" width="900" height="600" xmlns="http://www.w3.org/2000/svg" xmlns:xlink="http://www.w3.org/1999/xlink" version="1.1"><rect x="0" y="0" width="900" height="600" fill="#001220"></rect><path d="M0 438L21.5 430.5C43 423 86 408 128.8 397.3C171.7 386.7 214.3 380.3 257.2 377.3C300 374.3 343 374.7 385.8 376.5C428.7 378.3 471.3 381.7 514.2 391.2C557 400.7 600 416.3 642.8 418C685.7 419.7 728.3 407.3 771.2 401.3C814 395.3 857 395.7 878.5 395.8L900 396L900 601L878.5 601C857 601 814 601 771.2 601C728.3 601 685.7 601 642.8 601C600 601 557 601 514.2 601C471.3 601 428.7 601 385.8 601C343 601 300 601 257.2 601C214.3 601 171.7 601 128.8 601C86 601 43 601 21.5 601L0 601Z" fill="#fa7268"></path><path d="M0 396L21.5 396.5C43 397 86 398 128.8 407.8C171.7 417.7 214.3 436.3 257.2 444.5C300 452.7 343 450.3 385.8 451C428.7 451.7 471.3 455.3 514.2 447C557 438.7 600 418.3 642.8 413C685.7 407.7 728.3 417.3 771.2 420.7C814 424 857 421 878.5 419.5L900 418L900 601L878.5 601C857 601 814 601 771.2 601C728.3 601 685.7 601 642.8 601C600 601 557 601 514.2 601C471.3 601 428.7 601 385.8 601C343 601 300 601 257.2 601C214.3 601 171.7 601 128.8 601C86 601 43 601 21.5 601L0 601Z" fill="#ef5f67"></path><path d="M0 498L21.5 488C43 478 86 458 128.8 452.5C171.7 447 214.3 456 257.2 455.8C300 455.7 343 446.3 385.8 444.3C428.7 442.3 471.3 447.7 514.2 449C557 450.3 600 447.7 642.8 453.3C685.7 459 728.3 473 771.2 483.2C814 493.3 857 499.7 878.5 502.8L900 506L900 601L878.5 601C857 601 814 601 771.2 601C728.3 601 685.7 601 642.8 601C600 601 557 601 514.2 601C471.3 601 428.7 601 385.8 601C343 601 300 601 257.2 601C214.3 601 171.7 601 128.8 601C86 601 43 601 21.5 601L0 601Z" fill="#e34c67"></path><path d="M0 495L21.5 501.2C43 507.3 86 519.7 128.8 523.2C171.7 526.7 214.3 521.3 257.2 515C300 508.7 343 501.3 385.8 503.8C428.7 506.3 471.3 518.7 514.2 516.3C557 514 600 497 642.8 498.7C685.7 500.3 728.3 520.7 771.2 523C814 525.3 857 509.7 878.5 501.8L900 494L900 601L878.5 601C857 601 814 601 771.2 601C728.3 601 685.7 601 642.8 601C600 601 557 601 514.2 601C471.3 601 428.7 601 385.8 601C343 601 300 601 257.2 601C214.3 601 171.7 601 128.8 601C86 601 43 601 21.5 601L0 601Z" fill="#d53867"></path><path d="M0 566L21.5 562.5C43 559 86 552 128.8 546.3C171.7 540.7 214.3 536.3 257.2 533.5C300 530.7 343 529.3 385.8 535.2C428.7 541 471.3 554 514.2 560C557 566 600 565 642.8 562.2C685.7 559.3 728.3 554.7 771.2 553.5C814 552.3 857 554.7 878.5 555.8L900 557L900 601L878.5 601C857 601 814 601 771.2 601C728.3 601 685.7 601 642.8 601C600 601 557 601 514.2 601C471.3 601 428.7 601 385.8 601C343 601 300 601 257.2 601C214.3 601 171.7 601 128.8 601C86 601 43 601 21.5 601L0 601Z" fill="#c62368"></path></svg>