<svg id="visual" viewBox="0 0 900 600" width="900" height="600" xmlns="http://www.w3.org/2000/svg" xmlns:xlink="http://www.w3.org/1999/xlink" version="1.1"><path d="M0 127L82 127L82 91L164 91L164 139L245 139L245 103L327 103L327 97L409 97L409 157L491 157L491 85L573 85L573 133L655 133L655 67L736 67L736 73L818 73L818 121L900 121L900 61L900 0L900 0L818 0L818 0L736 0L736 0L655 0L655 0L573 0L573 0L491 0L491 0L409 0L409 0L327 0L327 0L245 0L245 0L164 0L164 0L82 0L82 0L0 0Z" fill="#fa7268"></path><path d="M0 247L82 247L82 151L164 151L164 229L245 229L245 229L327 229L327 199L409 199L409 235L491 235L491 187L573 187L573 217L655 217L655 109L736 109L736 193L818 193L818 217L900 217L900 109L900 59L900 119L818 119L818 71L736 71L736 65L655 65L655 131L573 131L573 83L491 83L491 155L409 155L409 95L327 95L327 101L245 101L245 137L164 137L164 89L82 89L82 125L0 125Z" fill="#ea5e66"></path><path d="M0 421L82 421L82 349L164 349L164 409L245 409L245 415L327 415L327 385L409 385L409 337L491 337L491 337L573 337L573 301L655 301L655 403L736 403L736 319L818 319L818 451L900 451L900 337L900 107L900 215L818 215L818 191L736 191L736 107L655 107L655 215L573 215L573 185L491 185L491 233L409 233L409 197L327 197L327 227L245 227L245 227L164 227L164 149L82 149L82 245L0 245Z" fill="#d84a64"></path><path d="M0 463L82 463L82 397L164 397L164 481L245 481L245 457L327 457L327 433L409 433L409 379L491 379L491 373L573 373L573 385L655 385L655 445L736 445L736 403L818 403L818 511L900 511L900 427L900 335L900 449L818 449L818 317L736 317L736 401L655 401L655 299L573 299L573 335L491 335L491 335L409 335L409 383L327 383L327 413L245 413L245 407L164 407L164 347L82 347L82 419L0 419Z" fill="#c53762"></path><path d="M0 601L82 601L82 601L164 601L164 601L245 601L245 601L327 601L327 601L409 601L409 601L491 601L491 601L573 601L573 601L655 601L655 601L736 601L736 601L818 601L818 601L900 601L900 601L900 425L900 509L818 509L818 401L736 401L736 443L655 443L655 383L573 383L573 371L491 371L491 377L409 377L409 431L327 431L327 455L245 455L245 479L164 479L164 395L82 395L82 461L0 461Z" fill="#b0235f"></path></svg>